<svg xmlns="http://www.w3.org/2000/svg" width="750" height="750" viewBox="0 0 750 750" version="1.1"><path d="" stroke="none" fill="#241445" fill-rule="evenodd"/><path d="M 151.500 1.139 C 141.277 2.433, 121.536 7.410, 112.691 10.924 C 83.807 22.398, 57.325 41.542, 39.304 63.975 C 20.857 86.940, 10.205 108.729, 3.353 137.516 L 0.500 149.500 0.500 374 L 0.500 598.500 2.804 609 C 4.071 614.775, 6.846 624.722, 8.971 631.105 C 30.136 694.683, 87.622 741.496, 153.734 748.989 C 160.669 749.775, 226.687 750.001, 381.500 749.769 L 599.500 749.441 609.394 747.171 C 633.790 741.572, 658.026 731.056, 676 718.270 C 687.743 709.917, 709.499 688.321, 717.408 677.168 C 733.561 654.390, 746.214 622.886, 748.613 599.478 C 748.981 595.884, 749.669 592.705, 750.141 592.413 C 750.616 592.119, 750.941 493.924, 750.868 372.691 C 750.796 252.136, 750.443 155.075, 750.084 157 C 749.523 160.010, 749.330 159.475, 748.702 153.178 C 748.301 149.151, 747.055 141.726, 745.932 136.678 C 730.021 65.100, 669.420 9.897, 597.026 1.037 C 586.443 -0.258, 161.770 -0.161, 151.500 1.139 M 163.500 29.990 C 144.033 31.552, 126.998 36.284, 110.002 44.853 C 64.901 67.593, 35.517 109.703, 30.006 159.500 C 29.220 166.603, 29.007 230.770, 29.271 381 C 29.609 573.092, 29.795 593.226, 31.299 600.416 C 37.883 631.894, 50.820 656.630, 71.792 677.847 C 94.989 701.313, 126.405 716.326, 159.789 719.899 C 166.932 720.663, 232.682 721, 374.795 721 C 597.364 721, 594.169 721.074, 613.481 715.478 C 640.246 707.721, 660.599 695.453, 680.036 675.359 C 700.310 654.401, 713.621 628.094, 718.676 599 C 720.403 589.059, 720.500 577.136, 720.500 375 C 720.500 140.067, 720.893 155.915, 714.519 133.488 C 711.310 122.198, 699.711 98.716, 692.791 89.500 C 684.692 78.714, 669.790 63.836, 660.384 57.146 C 650.021 49.774, 631.384 40.207, 620.275 36.556 C 615.751 35.069, 607.426 32.905, 601.775 31.747 C 591.538 29.649, 590.716 29.640, 382 29.455 C 266.775 29.352, 168.450 29.593, 163.500 29.990 M 596.977 88.276 C 575.100 95.735, 560.616 116.942, 562.333 139 C 563.806 157.935, 574.133 173.072, 591.295 181.454 C 605.594 188.438, 619.714 188.289, 634.631 180.996 C 676.145 160.702, 670.643 100.688, 626.068 87.595 C 618.015 85.230, 605.019 85.534, 596.977 88.276 M 605.637 116.408 C 597.723 119.346, 591.984 127.482, 592.022 135.710 C 592.080 148.297, 603.428 158.466, 615.300 156.568 C 630.758 154.096, 638.153 137.691, 629.858 124.271 C 625.519 117.249, 613.703 113.413, 605.637 116.408 M 0.491 374 C 0.491 494.725, 0.608 544.113, 0.750 483.750 C 0.892 423.388, 0.892 324.613, 0.750 264.250 C 0.608 203.888, 0.491 253.275, 0.491 374 M 354.887 182.967 C 301.368 189.774, 255.641 217.744, 226.498 261.500 C 222.468 267.550, 217.914 275.087, 216.377 278.250 L 213.583 284 144.267 284 L 74.951 284 75.266 419.250 C 75.614 569.001, 75.112 557.364, 82.134 578.500 C 96.707 622.363, 132.429 656.674, 177 669.618 C 196.488 675.277, 189.374 675.097, 379.500 674.749 C 553.998 674.430, 554.524 674.423, 563 672.306 C 601.027 662.811, 630.680 642.613, 651.167 612.253 C 657.982 602.153, 666.310 584.545, 669.481 573.530 C 675.116 553.953, 674.992 557.526, 674.996 415.250 L 675 284 605.731 284 L 536.462 284 533.076 277.750 C 512.565 239.886, 480.599 210.816, 442.294 195.190 C 420.910 186.467, 403.476 182.965, 379 182.476 C 369.375 182.283, 358.524 182.505, 354.887 182.967 M 349 214.020 C 289.046 224.633, 242.361 269.973, 228.737 330.817 C 225.612 344.776, 225.661 374.860, 228.833 389.688 C 238.699 435.804, 267.348 473.166, 308.803 493.979 C 350.561 514.944, 403.326 514.295, 444 492.315 C 458.989 484.215, 467.213 478.010, 480.057 465.111 C 502.528 442.542, 515.097 419.210, 521.187 388.763 C 524.043 374.488, 524.239 350.772, 521.630 335.500 C 510.959 273.060, 460.796 223.569, 398 213.527 C 384.907 211.434, 362.329 211.661, 349 214.020 M 104 424.539 C 104 497.053, 104.374 539.433, 105.069 545.666 C 109.358 584.132, 133.205 617.734, 168.056 634.420 C 181.461 640.838, 193.024 643.889, 208.500 645.092 C 216.787 645.737, 280.590 645.977, 384.500 645.755 C 545.804 645.410, 547.594 645.385, 556.500 643.312 C 578.939 638.089, 597.299 627.942, 613.085 612.040 C 628.257 596.756, 638.196 578.493, 643.309 556.500 C 645.359 547.686, 645.409 545.074, 645.740 430.250 L 646.078 313 596.432 313 C 551.740 313, 546.846 313.157, 547.388 314.569 C 549.159 319.183, 552.067 337.202, 552.978 349.205 C 556.318 393.212, 541.842 438.215, 512.996 473.500 C 484.743 508.060, 443.400 531.263, 399.054 537.449 C 323.840 547.939, 249.280 508.551, 215.537 440.500 C 204.297 417.833, 198.934 398.375, 196.846 372.678 C 195.484 355.934, 196.564 339.254, 200.027 323.551 C 201.112 318.629, 202 314.241, 202 313.801 C 202 313.360, 179.950 313, 153 313 L 104 313 104 424.539" stroke="none" fill="#1c1444" fill-rule="evenodd"/></svg>