<svg id="svg" version="1.1" xmlns="http://www.w3.org/2000/svg" xmlns:xlink="http://www.w3.org/1999/xlink" width="400" height="5.012531328320803" viewBox="0, 0, 400,5.012531328320803"><g id="svgg"><path id="path0" d="M0.000 4.060 L 0.000 5.000 200.000 5.000 L 400.000 5.000 400.000 4.167 L 400.000 3.333 200.875 3.332 C 91.356 3.331,1.356 3.283,0.875 3.225 L 0.000 3.120 0.000 4.060 " stroke="none" fill="#fcfcfc" fill-rule="evenodd"></path><path id="path1" d="M1.000 0.300 C 1.000 0.684,0.684 1.000,0.300 1.000 C 0.078 1.000,0.000 1.130,0.000 1.500 C 0.000 1.846,0.082 2.000,0.265 2.000 C 0.411 2.000,0.721 2.150,0.955 2.333 C 1.378 2.666,1.631 2.667,200.689 2.667 C 399.889 2.667,400.000 2.666,400.000 2.333 C 400.000 2.000,399.889 2.000,200.770 2.000 C 23.881 2.000,1.518 1.972,1.333 1.750 C 1.168 1.551,1.168 1.449,1.333 1.250 C 1.518 1.028,23.881 1.000,200.770 1.000 L 400.000 1.000 400.000 0.500 L 400.000 0.000 200.500 0.000 C 8.500 0.000,1.000 0.011,1.000 0.300 " stroke="none" fill="#0c0c0c" fill-rule="evenodd"></path><path id="path2" d="M0.000 0.500 C 0.000 1.037,0.409 1.191,0.800 0.800 C 1.191 0.409,1.037 0.000,0.500 0.000 C 0.056 0.000,0.000 0.056,0.000 0.500 M0.000 2.397 C 0.000 2.668,0.119 2.826,0.375 2.895 C 1.052 3.076,400.000 3.015,400.000 2.833 C 400.000 2.722,333.452 2.667,200.689 2.667 C 1.631 2.667,1.378 2.666,0.955 2.333 C 0.376 1.878,0.000 1.903,0.000 2.397 " stroke="none" fill="#545454" fill-rule="evenodd"></path><path id="path3" d="M1.333 1.250 C 1.168 1.449,1.168 1.551,1.333 1.750 C 1.518 1.972,23.881 2.000,200.770 2.000 L 400.000 2.000 400.000 1.500 L 400.000 1.000 200.770 1.000 C 23.881 1.000,1.518 1.028,1.333 1.250 " stroke="none" fill="#040404" fill-rule="evenodd"></path><path id="path4" d="" stroke="none" fill="#c410080" fill-rule="evenodd"></path></g></svg>