<?xml version="1.0" standalone="no"?>
<!DOCTYPE svg PUBLIC "-//W3C//DTD SVG 20010904//EN"
 "http://www.w3.org/TR/2001/REC-SVG-20010904/DTD/svg10.dtd">
<svg version="1.0" xmlns="http://www.w3.org/2000/svg"
 width="520.000000pt" height="480.000000pt" viewBox="0 0 520.000000 480.000000"
 preserveAspectRatio="xMidYMid meet">
<metadata>
Created by potrace 1.16, written by Peter Selinger 2001-2019
</metadata>
<g transform="translate(0.000000,480.000000) scale(0.100000,-0.100000)"
fill="#000000" stroke="none">
<path d="M3620 3481 c-8 -5 -44 -12 -79 -15 -35 -4 -71 -11 -80 -16 -9 -4 -36
-16 -61 -25 -111 -43 -299 -144 -308 -167 -2 -4 -10 -8 -17 -8 -8 0 -20 -6
-27 -13 -18 -18 -203 -107 -221 -107 -9 0 -17 -6 -20 -12 -5 -17 -539 -17
-559 0 -7 5 -42 12 -78 15 -218 14 -392 30 -435 38 -27 5 -199 13 -381 18
-330 9 -589 0 -608 -19 -5 -5 -18 -10 -28 -10 -23 0 -98 -32 -98 -42 0 -5 -6
-8 -13 -8 -11 0 -49 -32 -72 -62 -16 -21 -35 -82 -35 -113 0 -34 21 -95 32
-95 4 0 8 -6 8 -14 0 -15 80 -86 96 -86 5 0 22 -7 38 -15 16 -8 60 -18 98 -22
38 -3 71 -10 74 -14 7 -12 571 -12 578 -1 3 5 105 12 228 16 122 4 227 11 233
15 5 5 81 12 169 15 87 4 168 11 180 16 11 5 105 14 207 19 184 10 338 3 377
-19 31 -17 111 -50 121 -50 6 0 11 -3 11 -7 0 -5 19 -17 43 -28 23 -11 44 -22
47 -25 8 -8 42 -29 70 -42 14 -7 31 -18 38 -25 7 -7 20 -13 28 -13 8 0 14 -4
14 -9 0 -10 182 -101 203 -101 9 0 18 -4 22 -9 3 -6 27 -13 53 -16 26 -4 56
-10 67 -15 26 -11 198 -30 271 -30 63 0 169 17 196 31 10 5 24 9 33 9 20 0
115 42 115 51 0 4 10 9 23 13 28 7 162 135 171 164 4 12 11 22 16 22 5 0 11
14 15 30 4 17 11 30 16 30 5 0 9 6 9 14 0 7 7 27 15 42 32 62 10 354 -27 354
-4 0 -8 8 -8 18 0 25 -62 108 -124 167 -62 59 -201 132 -270 141 -26 4 -49 11
-52 15 -7 11 -294 11 -314 0z"/>
</g>
</svg>
