<svg id="svg" version="1.1" xmlns="http://www.w3.org/2000/svg" xmlns:xlink="http://www.w3.org/1999/xlink" width="400" height="368.46153846153845" viewBox="0, 0, 400,368.46153846153845"><g id="svgg"><path id="path0" d="M194.466 14.384 C 194.339 14.590,194.055 14.647,193.835 14.511 C 193.601 14.367,193.540 14.435,193.688 14.673 C 193.828 14.900,193.525 15.355,193.007 15.694 C 192.494 16.031,192.074 16.536,192.074 16.817 C 192.074 17.097,191.908 17.327,191.705 17.327 C 191.502 17.327,191.336 17.505,191.336 17.722 C 191.336 17.939,191.129 18.348,190.876 18.631 C 190.226 19.356,189.809 19.885,188.562 21.567 C 187.962 22.378,187.258 23.176,186.999 23.341 C 186.740 23.505,186.604 23.763,186.697 23.913 C 186.790 24.064,186.338 24.768,185.691 25.478 C 185.045 26.187,184.284 27.210,184.000 27.749 C 183.716 28.289,183.317 28.628,183.113 28.502 C 182.910 28.376,182.853 28.451,182.987 28.668 C 183.121 28.885,182.815 29.556,182.307 30.160 C 181.798 30.764,181.382 31.442,181.382 31.666 C 181.382 31.890,181.183 32.032,180.938 31.982 C 180.694 31.931,180.484 32.055,180.471 32.258 C 180.450 32.599,179.640 33.679,178.525 34.854 C 178.272 35.121,178.065 35.527,178.065 35.756 C 178.065 35.985,177.899 36.070,177.696 35.945 C 177.493 35.819,177.327 35.975,177.327 36.292 C 177.327 36.608,177.161 36.866,176.959 36.866 C 176.756 36.866,176.590 37.115,176.590 37.419 C 176.590 37.724,176.424 37.972,176.221 37.972 C 176.018 37.972,175.853 38.264,175.853 38.621 C 175.853 38.978,175.521 39.477,175.115 39.730 C 174.618 40.041,174.378 40.590,174.378 41.417 C 174.378 42.664,173.522 44.079,169.863 48.877 C 166.965 52.677,168.568 53.071,156.682 45.643 C 151.692 42.525,150.899 42.026,146.245 39.079 C 144.516 37.983,143.514 37.055,143.025 36.096 C 142.634 35.331,142.121 34.585,141.884 34.438 C 141.606 34.266,141.552 34.332,141.733 34.625 C 141.938 34.956,141.805 34.948,141.237 34.593 C 140.810 34.326,140.461 33.982,140.461 33.828 C 140.461 33.674,140.119 33.548,139.702 33.548 C 139.284 33.548,139.045 33.382,139.171 33.180 C 139.296 32.977,139.171 32.811,138.893 32.811 C 138.615 32.811,138.032 32.479,137.596 32.074 C 137.161 31.668,136.439 31.336,135.991 31.336 C 135.543 31.336,135.288 31.225,135.424 31.089 C 135.695 30.818,132.787 28.760,132.131 28.757 C 131.909 28.756,131.427 28.424,131.060 28.018 C 130.693 27.613,130.241 27.281,130.055 27.281 C 129.869 27.281,129.467 27.031,129.161 26.725 C 128.855 26.419,128.452 26.263,128.265 26.378 C 128.079 26.493,127.926 26.412,127.926 26.197 C 127.926 25.698,126.616 25.692,125.690 26.188 C 125.298 26.398,124.977 26.945,124.977 27.405 C 124.977 27.864,124.770 28.463,124.516 28.736 C 124.145 29.136,124.151 29.178,124.543 28.956 C 124.931 28.736,124.950 28.839,124.636 29.455 C 123.768 31.154,123.639 31.577,123.555 32.995 C 123.506 33.805,123.309 34.627,123.116 34.820 C 122.923 35.013,122.765 35.542,122.765 35.997 C 122.765 36.451,122.599 36.925,122.396 37.051 C 122.194 37.176,122.028 37.840,122.028 38.525 C 122.028 39.211,121.862 39.875,121.659 40.000 C 121.456 40.125,121.290 40.789,121.290 41.475 C 121.290 42.160,121.124 42.824,120.922 42.949 C 120.719 43.075,120.553 43.924,120.553 44.836 C 120.553 45.749,120.422 46.414,120.261 46.315 C 120.100 46.215,119.931 46.630,119.885 47.237 C 119.768 48.765,119.671 49.187,119.383 49.405 C 118.996 49.700,117.592 55.351,117.816 55.714 C 117.926 55.891,117.868 56.037,117.687 56.037 C 117.506 56.037,117.351 56.244,117.343 56.498 C 117.335 56.751,117.279 57.124,117.218 57.327 C 117.156 57.530,117.324 58.145,117.591 58.693 C 118.021 59.577,117.914 60.301,116.645 65.090 L 115.214 70.490 113.095 70.250 C 111.929 70.118,110.517 69.870,109.958 69.699 C 109.398 69.528,107.945 69.191,106.728 68.950 C 104.596 68.527,102.854 68.155,99.724 67.451 C 98.912 67.269,96.175 66.676,93.641 66.134 C 89.938 65.341,88.795 64.941,87.827 64.100 C 87.165 63.524,86.252 62.978,85.800 62.886 C 84.356 62.595,82.078 62.253,80.369 62.069 C 79.456 61.971,78.461 61.793,78.157 61.673 C 77.853 61.554,77.272 61.396,76.866 61.323 C 76.461 61.250,75.880 61.081,75.576 60.949 C 74.731 60.582,74.581 60.556,72.974 60.507 C 72.151 60.482,71.554 60.336,71.648 60.184 C 71.741 60.032,71.138 59.860,70.308 59.802 C 69.477 59.743,68.575 59.511,68.303 59.285 C 67.158 58.335,65.970 59.657,66.040 61.804 C 66.075 62.876,66.244 63.666,66.416 63.560 C 66.695 63.387,66.908 66.766,66.747 68.813 C 66.713 69.250,66.860 69.716,67.075 69.848 C 67.290 69.981,67.465 70.544,67.465 71.100 C 67.465 71.656,67.673 72.334,67.926 72.607 C 68.301 73.010,68.283 73.049,67.834 72.811 C 67.385 72.573,67.367 72.612,67.742 73.015 C 68.005 73.299,68.203 74.469,68.203 75.744 C 68.203 76.972,68.369 78.556,68.572 79.264 C 68.775 79.972,68.967 81.250,69.000 82.104 C 69.032 82.958,69.156 83.597,69.276 83.523 C 69.395 83.449,69.510 83.829,69.531 84.367 C 69.648 87.419,69.832 88.848,70.106 88.848 C 70.276 88.848,70.415 89.655,70.415 90.641 C 70.415 92.041,70.608 92.628,71.297 93.316 C 72.034 94.054,72.312 95.037,72.985 99.292 C 73.943 105.341,73.961 105.264,71.461 105.565 C 69.078 105.853,66.644 106.164,56.630 107.461 C 50.120 108.304,48.780 108.385,47.967 107.982 C 46.811 107.411,45.728 107.250,44.977 107.540 C 44.673 107.657,43.926 107.803,43.318 107.864 C 42.209 107.975,40.380 108.211,37.972 108.553 C 35.769 108.867,34.163 109.020,32.513 109.073 C 31.559 109.104,31.015 109.272,31.152 109.493 C 31.350 109.814,27.775 110.079,25.782 109.893 C 24.164 109.741,23.482 112.753,24.872 113.907 C 25.143 114.131,25.823 115.221,26.383 116.328 C 26.943 117.435,27.507 118.341,27.636 118.341 C 27.765 118.341,28.069 118.889,28.311 119.560 C 28.553 120.230,29.052 121.101,29.420 121.495 C 29.787 121.889,30.109 122.295,30.135 122.396 C 30.381 123.347,30.742 123.826,31.063 123.628 C 31.279 123.494,31.342 123.564,31.206 123.784 C 31.071 124.002,31.211 124.431,31.517 124.737 C 31.823 125.043,32.074 125.475,32.074 125.697 C 32.074 125.919,32.613 126.905,33.272 127.888 C 34.745 130.085,35.888 132.064,35.920 132.472 C 35.934 132.641,36.232 132.989,36.584 133.246 C 36.936 133.503,37.116 133.821,36.984 133.954 C 36.851 134.086,36.937 134.194,37.174 134.194 C 37.410 134.194,37.577 134.318,37.545 134.470 C 37.444 134.948,38.072 136.161,39.334 137.924 C 40.004 138.861,40.553 139.825,40.553 140.066 C 40.553 140.307,40.719 140.402,40.922 140.276 C 41.124 140.151,41.290 140.246,41.290 140.488 C 41.290 141.016,42.710 142.304,43.291 142.304 C 43.519 142.304,44.855 144.238,46.261 146.601 L 48.818 150.898 47.941 151.486 C 43.870 154.214,28.574 161.475,26.896 161.475 C 25.891 161.475,25.069 161.641,25.069 161.843 C 25.069 162.046,24.728 162.212,24.310 162.212 C 23.893 162.212,23.653 162.378,23.779 162.581 C 23.908 162.790,23.598 162.949,23.063 162.949 C 22.544 162.949,22.120 163.115,22.120 163.318 C 22.120 163.521,21.859 163.687,21.540 163.687 C 21.222 163.687,20.704 163.944,20.390 164.258 C 20.076 164.572,19.353 164.922,18.783 165.036 C 18.213 165.150,17.411 165.557,16.999 165.940 C 16.588 166.323,16.071 166.636,15.849 166.636 C 15.328 166.636,12.389 168.209,12.227 168.574 C 12.159 168.727,11.965 168.767,11.795 168.663 C 11.626 168.558,11.229 168.732,10.912 169.049 C 10.595 169.366,9.997 169.690,9.584 169.770 C 9.171 169.849,8.379 170.214,7.825 170.579 C 7.271 170.945,6.486 171.427,6.081 171.650 C 4.860 172.324,4.902 174.214,6.153 174.893 C 6.723 175.202,7.026 175.461,6.827 175.469 C 6.338 175.489,9.068 177.327,9.587 177.327 C 9.813 177.327,9.906 177.475,9.795 177.655 C 9.683 177.836,10.181 178.263,10.901 178.605 C 11.621 178.947,12.301 179.463,12.412 179.751 C 12.523 180.040,12.803 180.277,13.035 180.278 C 13.267 180.279,14.088 180.860,14.859 181.569 C 15.631 182.277,16.336 182.857,16.426 182.857 C 16.516 182.857,16.894 183.147,17.266 183.502 C 17.638 183.857,18.329 184.396,18.802 184.700 C 19.274 185.005,19.965 185.544,20.337 185.899 C 20.709 186.253,21.180 186.544,21.382 186.544 C 21.585 186.544,21.751 186.710,21.751 186.912 C 21.751 187.115,22.000 187.281,22.304 187.281 C 22.608 187.281,22.857 187.447,22.857 187.650 C 22.857 187.853,23.116 188.018,23.432 188.018 C 23.748 188.018,23.904 188.184,23.779 188.387 C 23.570 188.725,24.074 188.920,24.820 188.790 C 24.987 188.761,25.034 188.883,24.925 189.060 C 24.815 189.237,25.629 190.029,26.733 190.820 C 27.837 191.611,28.743 192.382,28.748 192.535 C 28.752 192.687,28.934 192.811,29.151 192.811 C 29.368 192.811,29.796 193.061,30.102 193.367 C 30.408 193.673,30.837 193.814,31.054 193.679 C 31.272 193.545,31.357 193.585,31.243 193.769 C 31.130 193.954,31.847 194.684,32.837 195.393 C 33.827 196.102,34.642 196.891,34.646 197.147 C 34.652 197.476,35.059 197.550,36.037 197.399 C 37.338 197.198,42.952 200.721,43.435 202.042 C 43.523 202.282,36.265 210.597,32.639 214.410 C 32.429 214.630,31.660 215.474,30.930 216.286 C 29.213 218.194,28.061 218.986,27.003 218.986 C 26.535 218.986,26.042 219.273,25.907 219.625 C 25.772 219.976,25.031 220.882,24.260 221.638 C 23.488 222.394,22.857 223.105,22.857 223.219 C 22.857 223.333,21.986 224.296,20.922 225.359 C 18.340 227.938,14.378 232.240,14.378 232.465 C 14.378 232.565,13.622 233.402,12.697 234.327 C 10.979 236.045,10.663 237.258,11.797 237.785 C 12.101 237.927,12.721 238.234,13.175 238.468 C 13.628 238.702,14.306 238.894,14.680 238.894 C 15.055 238.894,15.476 239.009,15.617 239.150 C 15.758 239.292,16.131 239.445,16.445 239.491 C 16.759 239.537,17.293 239.697,17.632 239.846 C 17.971 239.995,18.745 240.187,19.352 240.273 C 19.959 240.360,20.539 240.541,20.642 240.677 C 20.745 240.813,21.327 240.981,21.935 241.051 C 22.544 241.121,23.207 241.305,23.410 241.462 C 24.068 241.968,29.372 243.699,30.507 243.778 C 30.760 243.795,30.968 243.948,30.968 244.117 C 30.968 244.286,31.456 244.424,32.052 244.424 C 32.648 244.424,33.239 244.590,33.364 244.793 C 33.489 244.995,34.080 245.161,34.676 245.161 C 35.272 245.161,35.760 245.327,35.760 245.530 C 35.760 245.733,36.248 245.899,36.845 245.899 C 37.441 245.899,38.031 246.065,38.157 246.267 C 38.282 246.470,38.780 246.636,39.263 246.636 C 39.746 246.636,40.243 246.802,40.369 247.005 C 40.494 247.207,41.075 247.373,41.659 247.373 C 42.243 247.373,42.802 247.503,42.900 247.661 C 42.997 247.820,43.627 247.991,44.298 248.042 C 44.969 248.094,45.678 248.296,45.874 248.492 C 46.070 248.688,46.612 248.848,47.078 248.848 C 47.545 248.848,47.926 249.014,47.926 249.217 C 47.926 249.419,48.414 249.585,49.011 249.585 C 49.607 249.585,50.197 249.751,50.323 249.954 C 50.448 250.157,50.882 250.323,51.288 250.323 C 51.723 250.323,51.924 250.486,51.778 250.722 C 51.643 250.941,52.039 250.858,52.660 250.537 C 54.051 249.818,54.165 249.818,56.625 250.533 C 59.324 251.318,59.453 250.617,53.816 265.806 C 53.176 267.530,52.520 269.373,52.358 269.903 C 51.740 271.917,49.769 274.531,49.256 274.018 C 49.133 273.895,49.032 274.205,49.032 274.708 C 49.032 275.211,48.687 276.336,48.265 277.209 C 47.844 278.082,47.442 279.067,47.374 279.398 C 47.305 279.729,46.993 280.601,46.680 281.336 C 46.368 282.070,46.216 282.775,46.343 282.902 C 46.470 283.030,46.353 283.134,46.083 283.134 C 45.813 283.134,45.696 283.238,45.824 283.366 C 45.952 283.494,45.864 283.951,45.627 284.380 C 45.391 284.810,45.143 285.490,45.077 285.891 C 45.010 286.292,44.795 286.781,44.598 286.978 C 44.401 287.175,44.240 287.718,44.240 288.184 C 44.240 288.651,44.110 289.032,43.951 289.032 C 43.793 289.032,43.626 289.479,43.581 290.025 C 43.536 290.572,43.375 291.111,43.224 291.224 C 43.073 291.336,42.903 291.677,42.847 291.982 C 42.790 292.286,42.545 292.926,42.302 293.404 C 41.536 294.911,43.068 295.792,45.881 295.462 C 47.107 295.318,49.935 295.156,52.166 295.101 C 54.396 295.046,57.134 294.916,58.249 294.813 C 59.364 294.709,63.843 294.515,68.203 294.380 C 80.248 294.009,81.768 293.942,85.253 293.633 C 88.421 293.353,88.479 293.362,88.479 294.161 C 88.479 294.643,88.639 294.875,88.872 294.731 C 89.089 294.598,89.181 294.404,89.079 294.301 C 88.581 293.804,90.633 292.297,91.651 292.413 L 92.719 292.535 92.964 296.037 C 94.159 313.150,94.160 317.816,92.967 318.512 C 92.418 318.832,92.432 318.873,93.088 318.888 C 93.602 318.900,93.684 318.995,93.359 319.201 C 92.991 319.435,92.971 320.574,93.264 324.633 C 93.467 327.458,93.636 331.437,93.637 333.475 C 93.639 335.861,93.798 337.337,94.083 337.622 C 94.616 338.156,97.327 338.217,97.327 337.696 C 97.327 337.493,97.626 337.327,97.991 337.327 C 98.356 337.327,98.878 337.120,99.151 336.866 C 99.549 336.497,99.595 336.499,99.382 336.875 C 99.233 337.139,99.700 337.017,100.445 336.599 C 101.176 336.188,102.100 335.853,102.500 335.853 C 102.899 335.853,103.226 335.687,103.226 335.484 C 103.226 335.281,103.470 335.115,103.768 335.115 C 104.066 335.115,104.907 334.779,105.638 334.369 C 106.383 333.950,106.850 333.829,106.701 334.092 C 106.488 334.469,106.534 334.471,106.932 334.101 C 107.205 333.848,107.727 333.641,108.092 333.641 C 108.457 333.641,108.756 333.496,108.756 333.320 C 108.756 333.143,109.502 332.790,110.415 332.535 C 111.327 332.279,112.074 331.926,112.074 331.749 C 112.074 331.573,112.491 331.429,113.000 331.429 C 113.510 331.429,114.215 331.277,114.567 331.093 C 114.919 330.908,116.171 330.295,117.350 329.731 C 118.528 329.166,119.575 328.571,119.676 328.408 C 119.777 328.244,120.337 328.111,120.922 328.111 C 121.506 328.111,122.087 327.945,122.212 327.742 C 122.337 327.539,122.764 327.373,123.160 327.373 C 123.557 327.373,124.169 327.228,124.521 327.051 C 127.266 325.668,128.437 325.161,128.888 325.161 C 129.413 325.161,129.724 325.032,131.838 323.933 C 132.468 323.606,133.090 323.444,133.220 323.573 C 133.350 323.703,133.456 323.616,133.456 323.379 C 133.456 323.143,133.778 322.949,134.172 322.949 C 134.565 322.949,134.990 322.783,135.115 322.581 C 135.241 322.378,135.748 322.212,136.243 322.212 C 136.738 322.212,137.143 322.065,137.143 321.886 C 137.143 321.181,138.965 321.194,139.189 321.901 C 139.309 322.281,139.546 322.506,139.716 322.401 C 139.885 322.297,139.930 322.569,139.815 323.006 C 139.673 323.552,139.742 323.719,140.034 323.538 C 140.541 323.225,140.605 321.957,140.123 321.782 C 139.936 321.714,139.873 321.205,139.980 320.649 L 140.177 319.639 140.803 320.465 C 141.148 320.919,141.737 321.954,142.112 322.765 C 142.487 323.576,144.944 328.636,147.573 334.009 C 151.644 342.331,152.368 344.074,152.458 345.771 C 152.555 347.612,153.145 349.380,153.833 349.889 C 153.990 350.005,154.187 350.420,154.270 350.811 C 154.352 351.201,155.003 352.623,155.714 353.969 C 156.426 355.316,156.907 356.518,156.784 356.642 C 156.660 356.765,156.753 356.866,156.989 356.866 C 157.226 356.866,157.419 357.082,157.419 357.346 C 157.419 358.024,158.286 359.809,158.618 359.813 C 158.770 359.814,158.894 360.147,158.894 360.553 C 158.894 361.992,161.224 361.530,163.079 359.724 C 163.964 358.862,165.416 357.540,166.307 356.787 C 167.198 356.033,168.297 355.104,168.749 354.722 C 169.202 354.339,169.464 353.919,169.333 353.787 C 169.201 353.656,169.270 353.548,169.485 353.548 C 169.864 353.548,172.923 350.898,176.129 347.790 C 176.991 346.955,177.696 346.328,177.696 346.397 C 177.696 346.466,178.762 345.490,180.066 344.229 C 184.548 339.891,186.590 338.065,186.957 338.065 C 187.159 338.065,187.222 337.899,187.097 337.696 C 186.971 337.493,187.052 337.327,187.275 337.327 C 187.651 337.327,189.356 335.854,192.902 332.467 C 194.732 330.719,196.498 330.617,196.498 332.260 C 196.498 332.425,196.970 333.021,197.548 333.586 C 198.125 334.151,198.767 334.915,198.974 335.284 C 199.181 335.654,199.530 335.844,199.751 335.708 C 200.304 335.366,199.836 334.291,199.234 334.522 C 198.937 334.636,198.821 334.516,198.938 334.212 C 199.043 333.939,198.951 333.606,198.735 333.472 C 198.345 333.231,198.168 331.797,198.529 331.797 C 198.795 331.797,199.965 332.834,209.929 341.891 C 214.809 346.327,218.925 350.067,219.076 350.202 C 219.227 350.337,219.388 350.904,219.434 351.461 C 219.519 352.487,222.543 355.760,223.405 355.760 C 223.635 355.760,223.720 355.926,223.594 356.129 C 223.469 356.332,223.543 356.498,223.758 356.498 C 223.973 356.498,224.688 357.066,225.346 357.760 C 228.275 360.849,230.277 361.885,231.271 360.828 C 232.393 359.634,232.837 358.922,232.258 359.246 C 231.808 359.497,231.791 359.462,232.166 359.059 C 232.419 358.786,232.627 358.254,232.627 357.877 C 232.627 357.500,232.793 357.294,232.995 357.419 C 233.198 357.545,233.364 357.408,233.364 357.115 C 233.364 356.822,234.098 355.168,234.994 353.439 C 235.891 351.710,236.527 350.198,236.408 350.079 C 236.288 349.960,236.352 349.862,236.548 349.862 C 236.864 349.862,237.517 348.656,240.413 342.730 C 240.794 341.951,241.106 341.080,241.106 340.795 C 241.106 340.510,241.272 340.276,241.475 340.276 C 241.677 340.276,241.843 340.047,241.843 339.766 C 241.843 339.485,242.084 338.791,242.377 338.225 C 242.671 337.659,242.811 337.018,242.687 336.801 C 242.563 336.583,242.600 336.530,242.768 336.683 C 243.074 336.960,245.137 333.131,245.153 332.258 C 245.158 332.005,245.286 331.796,245.438 331.794 C 245.769 331.791,246.636 330.006,246.636 329.327 C 246.636 329.064,246.802 328.848,247.005 328.848 C 247.207 328.848,247.373 328.516,247.373 328.111 C 247.373 327.705,247.498 327.372,247.650 327.370 C 247.802 327.369,248.118 326.954,248.353 326.448 C 248.675 325.753,248.675 325.588,248.353 325.773 C 248.118 325.908,248.300 325.607,248.756 325.105 C 249.212 324.603,249.585 323.933,249.585 323.616 C 249.585 323.299,249.834 322.833,250.138 322.581 C 250.763 322.062,250.882 321.106,250.323 321.106 C 249.864 321.106,249.833 319.749,250.286 319.470 C 250.972 319.045,282.509 331.976,283.687 333.164 C 284.896 334.385,287.662 335.853,288.755 335.853 C 289.182 335.853,289.344 336.014,289.181 336.278 C 289.036 336.514,289.079 336.605,289.278 336.481 C 289.476 336.359,290.101 336.499,290.668 336.793 C 291.234 337.087,292.093 337.327,292.577 337.327 C 293.060 337.327,293.456 337.493,293.456 337.696 C 293.456 337.899,294.106 338.065,294.900 338.065 C 296.790 338.065,297.055 336.903,297.115 328.339 C 297.139 324.917,297.234 321.994,297.327 321.844 C 297.420 321.694,297.682 317.775,297.911 313.136 C 298.140 308.496,298.382 304.037,298.448 303.226 C 298.844 298.418,298.754 296.430,298.110 295.718 C 297.691 295.255,297.502 294.562,297.578 293.767 L 297.696 292.535 303.594 292.535 C 320.912 292.535,335.471 293.592,336.294 294.911 C 336.609 295.415,337.070 295.472,339.101 295.262 C 340.437 295.124,341.704 295.068,341.917 295.138 C 342.812 295.431,347.220 295.565,347.631 295.311 C 348.058 295.047,348.024 293.232,347.569 291.982 C 347.459 291.677,347.153 290.682,346.891 289.770 C 346.629 288.857,346.242 287.779,346.031 287.373 C 345.821 286.968,345.634 286.553,345.617 286.452 C 345.487 285.681,344.856 283.945,343.943 281.843 C 343.679 281.235,343.430 280.613,343.390 280.461 C 343.351 280.309,343.276 280.101,343.226 280.000 C 343.175 279.899,343.099 279.691,343.057 279.539 C 343.016 279.387,342.844 278.765,342.677 278.157 C 342.509 277.548,342.130 276.677,341.835 276.221 C 341.539 275.765,341.420 275.392,341.570 275.392 C 341.719 275.392,341.659 275.171,341.435 274.902 C 341.211 274.633,340.971 274.093,340.902 273.704 C 340.832 273.314,340.497 272.353,340.157 271.568 C 339.817 270.783,339.539 269.839,339.539 269.470 C 339.539 269.101,339.373 268.697,339.171 268.571 C 338.968 268.446,338.802 268.019,338.802 267.623 C 338.802 267.227,338.655 266.614,338.476 266.262 C 337.701 264.738,337.278 263.706,337.194 263.129 C 337.144 262.788,336.987 262.394,336.846 262.253 C 336.705 262.112,336.590 261.693,336.590 261.321 C 336.590 260.949,336.424 260.645,336.221 260.645 C 336.018 260.645,335.888 260.521,335.930 260.369 C 336.184 259.470,335.403 257.814,334.487 257.303 C 332.171 256.015,331.017 250.691,333.053 250.691 C 333.309 250.691,334.500 250.379,335.699 249.996 C 336.899 249.614,339.622 248.764,341.751 248.108 C 343.880 247.451,346.535 246.614,347.650 246.248 C 359.849 242.241,365.550 240.676,366.680 241.023 C 367.930 241.407,369.646 241.235,369.981 240.693 C 370.091 240.515,370.587 240.369,371.082 240.369 C 371.577 240.369,371.982 240.203,371.982 240.000 C 371.982 239.797,372.552 239.631,373.250 239.631 C 373.948 239.631,374.621 239.465,374.747 239.263 C 374.872 239.060,375.453 238.894,376.037 238.894 C 376.621 238.894,377.202 238.728,377.327 238.525 C 377.453 238.323,377.859 238.157,378.231 238.157 C 378.894 238.157,379.355 237.476,379.355 236.499 C 379.355 235.834,376.912 233.356,376.564 233.668 C 376.412 233.805,376.393 233.731,376.523 233.504 C 376.794 233.028,375.531 231.412,375.170 231.773 C 375.038 231.905,374.931 231.807,374.931 231.556 C 374.931 231.305,374.724 230.890,374.470 230.634 C 374.217 230.377,373.680 229.726,373.277 229.185 C 372.874 228.645,372.307 228.203,372.017 228.203 C 371.727 228.203,371.593 228.100,371.718 227.975 C 371.968 227.725,371.256 226.886,370.737 226.817 C 370.559 226.794,370.214 226.391,369.969 225.922 C 369.725 225.453,369.331 225.111,369.094 225.161 C 368.857 225.212,368.705 225.046,368.756 224.793 C 368.806 224.539,368.641 224.373,368.387 224.424 C 368.134 224.475,367.968 224.349,368.018 224.144 C 368.119 223.736,366.893 222.212,364.055 219.216 C 363.041 218.146,361.465 216.400,360.553 215.337 C 356.930 211.115,354.015 208.295,353.274 208.295 C 352.309 208.295,346.444 202.319,346.967 201.868 C 347.782 201.163,371.619 182.998,372.629 182.312 C 374.083 181.323,375.269 181.131,375.916 181.778 C 376.198 182.060,376.381 181.901,376.550 181.225 C 376.681 180.703,377.034 180.276,377.334 180.276 C 377.634 180.276,377.880 180.111,377.880 179.908 C 377.880 179.705,378.089 179.539,378.344 179.539 C 378.600 179.539,379.016 179.207,379.269 178.802 C 379.523 178.396,379.960 178.065,380.241 178.065 C 380.522 178.065,381.240 177.608,381.838 177.051 C 382.436 176.493,383.355 175.807,383.880 175.527 C 385.532 174.645,386.105 172.166,384.657 172.166 C 384.353 172.166,384.206 172.000,384.332 171.797 C 384.457 171.594,384.283 171.429,383.946 171.429 C 383.608 171.429,382.838 171.013,382.234 170.504 C 381.630 169.996,381.003 169.663,380.840 169.763 C 380.677 169.864,380.339 169.699,380.089 169.397 C 379.838 169.095,379.322 168.848,378.941 168.848 C 378.560 168.848,378.249 168.682,378.249 168.479 C 378.249 168.276,377.972 168.111,377.633 168.111 C 377.294 168.111,376.706 167.829,376.326 167.486 C 375.946 167.142,375.276 166.806,374.836 166.739 C 374.396 166.671,373.630 166.248,373.134 165.797 C 372.637 165.346,372.371 165.217,372.542 165.510 C 372.719 165.814,372.363 165.695,371.715 165.234 C 371.089 164.788,370.396 164.424,370.174 164.424 C 369.951 164.424,369.770 164.258,369.770 164.055 C 369.770 163.853,369.527 163.687,369.230 163.687 C 368.708 163.687,365.643 162.126,364.700 161.380 C 364.447 161.180,364.237 161.160,364.234 161.337 C 364.231 161.514,364.106 161.480,363.957 161.260 C 363.809 161.041,362.525 160.283,361.106 159.575 C 359.687 158.868,358.152 158.093,357.696 157.854 C 355.765 156.842,355.372 156.682,354.822 156.682 C 354.503 156.682,354.345 156.516,354.470 156.313 C 354.600 156.103,354.282 155.945,353.733 155.945 C 353.202 155.945,352.846 155.817,352.943 155.661 C 353.039 155.506,352.479 155.439,351.699 155.513 C 350.230 155.654,342.384 152.003,341.999 151.000 C 341.908 150.763,343.734 147.424,346.057 143.579 C 348.380 139.735,351.970 133.787,354.034 130.362 C 357.064 125.336,358.014 124.039,358.959 123.640 C 359.604 123.369,360.237 122.812,360.367 122.403 C 360.496 121.994,360.767 121.659,360.968 121.659 C 361.169 121.659,361.231 121.493,361.106 121.290 C 360.981 121.088,361.054 120.922,361.269 120.922 C 361.483 120.922,361.659 120.685,361.659 120.395 C 361.659 120.105,361.872 119.649,362.132 119.381 C 363.067 118.418,364.240 116.558,364.240 116.037 C 364.240 115.745,364.571 115.206,364.977 114.839 C 365.382 114.472,365.714 113.865,365.714 113.491 C 365.714 113.117,365.880 112.811,366.083 112.811 C 366.286 112.811,366.452 112.331,366.452 111.745 C 366.452 110.275,365.867 110.051,361.412 109.817 C 360.160 109.751,359.210 109.578,359.300 109.433 C 359.390 109.288,359.169 109.175,358.810 109.183 C 358.016 109.199,353.733 108.810,353.733 108.721 C 353.733 108.686,353.235 108.607,352.627 108.544 C 352.018 108.482,350.774 108.332,349.862 108.211 C 348.949 108.090,347.688 107.939,347.060 107.876 C 346.431 107.813,345.768 107.677,345.585 107.573 C 345.302 107.412,344.335 107.325,341.382 107.194 C 341.078 107.181,340.745 107.041,340.641 106.885 C 340.537 106.728,339.168 106.552,337.599 106.494 C 336.030 106.436,334.747 106.275,334.747 106.137 C 334.747 105.999,333.721 105.871,332.468 105.854 C 331.215 105.836,330.031 105.662,329.836 105.468 C 329.611 105.242,329.258 105.391,328.862 105.881 C 328.190 106.710,328.812 106.731,318.710 105.537 C 317.899 105.441,317.098 105.234,316.932 105.078 C 316.682 104.844,318.182 93.658,319.602 85.161 C 319.789 84.046,320.135 81.724,320.373 80.000 C 320.857 76.480,321.064 75.918,322.064 75.392 C 322.582 75.119,322.734 74.705,322.648 73.801 C 322.583 73.129,322.688 72.382,322.881 72.142 C 323.074 71.902,323.252 70.642,323.278 69.343 C 323.303 68.043,323.461 66.799,323.628 66.578 C 323.795 66.356,323.972 65.346,324.022 64.332 C 324.072 63.318,324.265 62.331,324.452 62.138 C 325.435 61.127,324.047 58.861,322.885 59.579 C 322.609 59.749,322.570 59.671,322.768 59.349 C 322.998 58.978,322.900 58.932,322.365 59.157 C 321.977 59.320,320.989 59.566,320.171 59.703 C 319.352 59.839,318.490 60.071,318.254 60.217 C 318.017 60.363,317.229 60.504,316.500 60.532 C 315.772 60.559,315.091 60.720,314.986 60.890 C 314.881 61.059,314.400 61.198,313.917 61.198 C 313.434 61.198,312.936 61.364,312.811 61.567 C 312.686 61.770,311.588 61.935,310.371 61.935 C 309.155 61.935,308.251 62.084,308.363 62.265 C 308.475 62.446,308.194 62.602,307.739 62.612 C 305.812 62.651,304.885 62.780,304.885 63.009 C 304.885 63.241,304.566 63.299,302.488 63.440 C 301.982 63.474,301.567 63.612,301.567 63.746 C 301.567 63.881,301.276 64.023,300.922 64.063 C 300.260 64.138,298.946 64.404,298.618 64.530 C 298.516 64.569,298.158 64.574,297.821 64.541 C 297.484 64.508,297.105 64.647,296.979 64.851 C 296.854 65.055,296.506 65.127,296.207 65.012 C 295.907 64.898,295.229 65.088,294.698 65.435 C 294.168 65.783,293.847 65.884,293.986 65.660 C 294.293 65.163,293.738 65.119,293.253 65.602 C 293.061 65.794,292.157 65.987,291.244 66.031 C 290.332 66.075,289.380 66.269,289.129 66.461 C 288.878 66.653,288.413 66.711,288.096 66.589 C 287.779 66.468,287.596 66.492,287.690 66.644 C 288.194 67.459,286.659 68.342,283.610 68.991 C 274.169 71.000,275.468 71.547,273.749 64.841 C 273.054 62.128,271.966 57.917,271.332 55.484 C 270.699 53.051,269.777 49.504,269.284 47.602 C 268.346 43.986,268.151 42.028,268.729 42.028 C 269.202 42.028,268.886 39.866,268.307 39.153 C 267.910 38.662,267.923 38.618,268.387 38.877 C 268.837 39.129,268.854 39.094,268.479 38.690 C 268.226 38.417,268.018 37.801,268.018 37.321 C 268.018 36.842,267.841 36.118,267.624 35.713 C 267.408 35.308,267.216 34.484,267.199 33.881 C 267.182 33.278,267.028 32.698,266.856 32.592 C 266.684 32.486,266.544 31.863,266.544 31.208 C 266.544 30.553,266.231 29.404,265.848 28.653 C 265.466 27.903,265.300 27.380,265.480 27.491 C 265.962 27.790,265.855 27.192,265.293 26.452 C 264.764 25.755,262.120 25.525,262.120 26.175 C 262.120 26.378,261.861 26.544,261.545 26.544 C 261.229 26.544,261.056 26.682,261.160 26.851 C 261.265 27.020,261.137 27.158,260.877 27.158 C 260.291 27.158,256.882 29.449,256.479 30.113 C 256.317 30.380,255.985 30.603,255.742 30.607 C 255.499 30.612,254.885 30.940,254.378 31.336 C 253.871 31.733,253.156 32.061,252.789 32.066 C 252.422 32.070,252.225 32.240,252.350 32.442 C 252.476 32.645,252.227 32.811,251.797 32.811 C 251.368 32.811,251.119 32.977,251.244 33.180 C 251.370 33.382,251.130 33.548,250.713 33.548 C 250.296 33.548,249.954 33.696,249.954 33.877 C 249.954 34.058,249.332 34.455,248.571 34.759 C 247.811 35.064,246.876 35.658,246.495 36.081 C 246.113 36.503,245.681 36.776,245.537 36.686 C 245.392 36.596,244.953 36.808,244.562 37.156 C 244.171 37.503,243.233 38.104,242.478 38.491 C 241.724 38.878,241.106 39.334,241.106 39.505 C 241.106 39.676,240.847 39.816,240.531 39.816 C 240.215 39.816,240.059 39.982,240.184 40.184 C 240.310 40.387,240.176 40.553,239.887 40.553 C 239.598 40.553,238.940 40.885,238.425 41.290 C 237.909 41.696,237.255 42.028,236.970 42.028 C 236.685 42.028,236.122 42.318,235.718 42.673 C 235.313 43.028,234.664 43.500,234.274 43.722 C 233.884 43.943,233.475 44.524,233.364 45.012 C 233.072 46.295,223.856 52.301,222.995 51.768 C 221.454 50.816,206.106 29.340,206.220 28.296 C 206.346 27.148,206.130 26.773,204.055 24.534 C 203.447 23.878,202.898 23.118,202.834 22.846 C 202.771 22.574,202.372 22.050,201.948 21.682 C 201.524 21.315,201.316 21.014,201.485 21.014 C 201.654 21.014,201.264 20.543,200.619 19.967 C 199.975 19.391,199.447 18.748,199.447 18.538 C 199.447 18.327,199.194 17.945,198.885 17.688 C 198.576 17.432,198.394 17.151,198.481 17.064 C 198.568 16.977,198.040 16.255,197.307 15.458 C 196.004 14.041,194.929 13.634,194.466 14.384 M86.741 57.696 C 86.744 58.710,86.816 59.081,86.900 58.520 C 86.985 57.960,86.983 57.130,86.895 56.677 C 86.808 56.224,86.739 56.682,86.741 57.696 M51.341 93.168 C 51.902 93.253,52.731 93.250,53.185 93.163 C 53.638 93.075,53.180 93.006,52.166 93.009 C 51.152 93.011,50.781 93.083,51.341 93.168 M91.570 116.527 C 92.405 116.746,93.751 117.099,94.562 117.312 C 99.490 118.608,99.985 119.299,98.536 122.862 C 97.271 125.975,97.397 125.942,92.535 124.434 C 82.638 121.366,74.101 124.207,74.101 130.568 C 74.101 134.610,76.715 137.206,83.554 139.957 C 98.566 145.995,101.880 149.351,101.895 158.525 C 101.913 169.827,90.508 176.448,75.871 173.634 C 67.315 171.988,63.658 170.327,64.733 168.573 C 64.951 168.217,65.362 167.129,65.647 166.154 C 66.343 163.768,67.003 163.184,68.264 163.838 C 77.967 168.872,91.241 167.329,93.094 160.953 C 94.741 155.290,91.149 151.236,81.475 147.839 C 79.337 147.089,77.932 146.517,74.839 145.138 C 68.921 142.500,65.919 138.045,65.848 131.797 C 65.757 123.714,69.317 119.131,77.604 116.664 C 79.489 116.103,89.576 116.004,91.570 116.527 M115.779 136.774 C 115.999 157.706,115.992 157.629,118.101 161.229 C 122.378 168.527,135.735 168.252,139.512 160.788 C 141.341 157.173,141.338 157.216,141.550 136.774 L 141.751 117.419 145.383 117.313 C 147.745 117.244,149.196 117.357,149.531 117.635 C 150.260 118.240,150.259 151.648,149.530 156.313 C 147.721 167.895,140.401 174.043,128.479 173.996 C 117.589 173.953,110.582 168.542,108.218 158.348 C 107.618 155.761,107.332 118.045,107.908 117.469 C 108.049 117.327,109.833 117.258,111.871 117.315 L 115.576 117.419 115.779 136.774 M166.077 117.468 C 166.411 117.596,168.208 119.481,170.070 121.657 C 174.692 127.056,174.894 127.308,179.838 133.825 C 180.992 135.346,182.132 136.839,182.372 137.143 C 184.569 139.924,190.159 147.924,193.375 152.891 C 194.586 154.760,195.699 156.295,195.849 156.301 C 196.000 156.308,196.165 147.562,196.218 136.866 L 196.313 117.419 200.184 117.419 L 204.055 117.419 204.150 144.862 C 204.225 166.571,204.148 172.365,203.781 172.598 C 203.030 173.075,198.178 172.954,197.528 172.442 C 197.206 172.189,195.874 170.240,194.569 168.111 C 189.166 159.297,177.375 142.146,173.532 137.512 C 173.280 137.207,172.479 136.180,171.754 135.227 C 170.073 133.023,168.190 130.876,167.938 130.876 C 167.830 130.876,167.742 140.229,167.742 151.662 L 167.742 172.449 166.912 172.671 C 165.829 172.961,160.965 172.967,160.214 172.679 C 159.606 172.446,159.274 118.084,159.877 117.481 C 160.190 117.168,165.269 117.158,166.077 117.468 M221.183 117.595 C 223.587 118.882,241.525 142.149,248.124 152.540 C 249.435 154.604,250.631 156.297,250.783 156.303 C 250.935 156.309,251.062 147.728,251.066 137.235 C 251.069 126.742,251.207 117.943,251.373 117.682 C 251.593 117.334,252.653 117.235,255.330 117.313 L 258.986 117.419 259.081 144.862 C 259.156 166.571,259.079 172.365,258.712 172.598 C 258.457 172.760,257.039 172.894,255.559 172.898 C 252.381 172.904,252.158 172.734,249.585 168.317 C 247.683 165.053,239.110 152.034,236.445 148.363 C 231.721 141.856,225.650 133.896,224.254 132.379 L 222.702 130.691 222.687 151.355 C 222.676 166.918,222.564 172.128,222.230 172.461 C 221.769 172.923,216.225 173.094,215.145 172.679 C 214.537 172.446,214.205 118.084,214.808 117.481 C 215.191 117.098,220.429 117.192,221.183 117.595 M274.657 121.475 C 276.405 124.958,279.283 130.409,280.690 132.904 C 282.658 136.393,286.596 142.673,286.816 142.673 C 287.065 142.673,289.032 139.940,289.032 139.594 C 289.032 139.514,289.915 137.976,290.994 136.176 C 293.485 132.021,295.549 128.250,298.636 122.212 L 301.086 117.419 305.382 117.315 C 310.405 117.194,310.369 117.155,308.443 120.686 C 304.101 128.648,298.088 138.849,293.324 146.335 L 290.876 150.182 290.876 161.161 C 290.876 173.899,291.235 172.903,286.636 172.903 C 282.038 172.903,282.396 173.892,282.396 161.207 L 282.396 150.273 280.608 147.487 C 276.886 141.690,273.417 135.994,270.546 130.968 C 270.170 130.309,269.506 129.147,269.072 128.387 C 268.638 127.627,267.867 126.258,267.359 125.346 C 266.850 124.433,265.796 122.552,265.015 121.165 C 262.769 117.179,262.758 117.193,268.108 117.316 L 272.621 117.419 274.657 121.475 M17.143 151.258 C 16.641 151.867,16.501 152.897,16.887 153.136 C 17.062 153.243,17.206 153.132,17.208 152.887 C 17.210 152.642,17.332 152.069,17.478 151.613 C 17.776 150.688,17.689 150.596,17.143 151.258 M120.553 182.625 C 121.060 182.901,122.354 183.591,123.428 184.159 C 134.962 190.260,132.545 217.492,120.252 219.950 C 118.224 220.355,116.585 225.865,114.671 238.710 C 114.248 241.548,113.745 244.866,113.554 246.083 C 113.048 249.307,112.077 257.603,111.332 265.069 C 110.968 268.709,110.756 270.511,109.868 277.512 C 108.447 288.703,107.736 290.112,103.041 291.042 C 99.444 291.755,96.221 289.914,96.221 287.146 C 96.221 286.180,96.055 285.287,95.853 285.161 C 95.650 285.036,95.484 284.768,95.484 284.565 C 95.484 284.362,95.650 284.299,95.853 284.424 C 96.080 284.565,96.221 283.929,96.221 282.765 C 96.221 281.727,96.372 280.971,96.556 281.085 C 96.740 281.199,96.974 280.420,97.077 279.355 C 97.337 276.662,98.289 272.628,101.187 261.935 C 102.731 256.241,105.441 245.351,106.141 242.028 C 106.569 240.000,107.076 237.594,107.268 236.682 C 107.460 235.770,107.875 233.364,108.191 231.336 C 108.507 229.309,108.864 227.069,108.985 226.359 C 109.105 225.650,109.176 223.417,109.142 221.399 L 109.080 217.728 107.650 216.504 C 103.319 212.797,102.107 203.642,104.879 195.576 C 107.937 186.678,115.901 180.098,120.553 182.625 M84.608 188.063 C 92.329 190.051,92.562 190.277,91.001 194.264 C 89.655 197.704,90.082 197.573,85.530 195.941 C 77.141 192.933,67.669 195.198,66.889 200.399 C 66.065 205.893,68.605 208.519,78.490 212.395 C 89.387 216.667,93.132 220.199,94.398 227.396 C 96.287 238.127,87.935 245.517,73.917 245.517 C 68.839 245.517,60.096 243.515,57.883 241.845 L 56.987 241.170 57.836 238.582 C 59.159 234.546,59.080 234.594,62.319 235.860 C 72.158 239.707,82.729 238.640,85.118 233.558 C 87.857 227.732,84.594 223.322,74.771 219.569 C 61.491 214.495,58.433 211.350,58.433 202.765 C 58.433 194.055,63.142 189.038,72.627 187.640 C 75.094 187.276,82.579 187.541,84.608 188.063 M171.506 188.164 C 196.671 194.783,198.082 235.925,173.420 243.981 C 156.482 249.515,140.384 239.307,138.187 221.639 C 135.383 199.087,151.494 182.901,171.506 188.164 M234.996 188.706 C 249.526 193.498,256.702 211.151,250.977 228.018 C 243.083 251.278,209.427 251.278,201.473 228.018 C 193.113 203.574,212.202 181.188,234.996 188.706 M271.125 189.724 C 276.886 195.485,290.041 212.751,297.698 224.600 C 300.640 229.153,300.461 230.211,300.461 208.323 C 300.461 190.892,300.522 188.811,301.044 188.611 C 302.128 188.195,307.305 188.372,307.951 188.848 C 308.533 189.276,308.572 191.270,308.483 216.590 L 308.387 243.871 304.988 243.977 L 301.589 244.083 299.550 240.923 C 298.429 239.184,297.512 237.686,297.512 237.593 C 297.512 237.378,288.952 224.395,288.647 224.147 C 288.522 224.046,287.531 222.636,286.446 221.014 C 283.660 216.853,278.741 210.255,275.042 205.720 L 271.889 201.854 271.794 222.967 L 271.699 244.080 267.739 243.976 L 263.779 243.871 263.683 216.590 C 263.574 185.363,263.184 188.387,267.315 188.387 C 269.666 188.387,269.854 188.453,271.125 189.724 M160.369 195.059 C 144.657 198.128,141.057 227.340,155.357 235.721 C 168.586 243.473,182.120 233.540,182.120 216.080 C 182.120 212.054,181.997 211.221,180.772 206.941 C 178.269 198.198,169.737 193.229,160.369 195.059 M221.685 195.217 C 215.909 196.774,211.777 200.761,209.849 206.636 C 208.590 210.475,208.481 211.276,208.520 216.406 C 208.633 231.205,216.498 239.496,228.860 237.844 C 241.943 236.096,248.341 218.246,241.161 203.527 C 237.857 196.754,229.391 193.141,221.685 195.217 M88.196 299.355 C 88.196 300.065,88.272 300.355,88.365 300.000 C 88.457 299.645,88.457 299.065,88.365 298.710 C 88.272 298.355,88.196 298.645,88.196 299.355 " stroke="none" fill="#fbc95c" fill-rule="evenodd"></path><path id="path1" d="M272.236 39.251 C 271.843 39.549,271.687 39.792,271.889 39.792 C 272.092 39.792,272.580 39.549,272.974 39.251 C 273.367 38.953,273.523 38.710,273.321 38.710 C 273.118 38.710,272.630 38.953,272.236 39.251 M284.977 50.301 C 284.977 50.796,285.113 51.285,285.279 51.387 C 285.445 51.490,285.509 51.085,285.421 50.487 C 285.228 49.170,284.977 49.064,284.977 50.301 M87.098 60.276 C 87.102 61.088,87.177 61.376,87.265 60.917 C 87.354 60.459,87.350 59.795,87.258 59.443 C 87.166 59.090,87.093 59.465,87.098 60.276 M53.825 93.198 C 53.825 93.360,54.447 93.433,55.207 93.361 C 57.578 93.135,57.771 92.990,55.760 92.946 C 54.696 92.922,53.825 93.036,53.825 93.198 M49.124 93.526 C 49.479 93.619,50.060 93.619,50.415 93.526 C 50.770 93.433,50.479 93.357,49.770 93.357 C 49.060 93.357,48.770 93.433,49.124 93.526 M330.447 100.369 C 330.046 101.010,329.958 101.792,330.310 101.574 C 330.606 101.391,331.098 99.908,330.863 99.908 C 330.792 99.908,330.605 100.115,330.447 100.369 M78.495 117.025 C 70.271 118.829,66.115 124.058,66.426 132.212 C 66.711 139.676,69.463 142.495,80.818 146.955 C 89.530 150.376,91.866 152.001,93.414 155.713 C 97.398 165.268,83.639 170.767,69.913 165.106 C 66.874 163.853,67.021 163.783,65.966 167.002 C 64.868 170.349,65.819 171.035,73.917 172.733 C 89.170 175.933,100.904 170.175,101.324 159.287 C 101.648 150.899,98.328 146.752,87.742 142.319 C 75.634 137.249,73.733 135.673,73.733 130.707 C 73.733 123.620,83.039 120.478,93.341 124.086 C 94.824 124.606,96.253 125.060,96.517 125.096 C 96.861 125.143,99.148 120.385,99.169 119.579 C 99.172 119.485,96.064 118.263,94.931 117.912 C 90.550 116.554,82.597 116.125,78.495 117.025 M108.458 117.921 C 107.551 118.496,108.032 156.161,108.989 159.471 C 113.139 173.829,132.775 178.626,143.605 167.926 C 148.885 162.710,149.124 161.388,149.124 137.512 L 149.124 117.788 146.912 117.673 C 145.696 117.610,144.161 117.659,143.502 117.782 L 142.304 118.006 142.301 135.224 C 142.298 154.970,142.156 156.550,139.978 161.050 C 136.367 168.509,122.895 169.184,118.055 162.148 C 115.544 158.497,115.587 158.913,115.472 137.459 L 115.367 118.052 114.550 117.833 C 113.334 117.507,109.012 117.569,108.458 117.921 M160.645 117.839 C 160.038 118.015,160.000 119.633,160.000 145.096 L 160.000 172.166 163.499 172.166 L 166.999 172.166 167.094 151.249 C 167.178 132.706,167.254 130.320,167.760 130.223 C 168.256 130.127,169.218 131.184,173.386 136.406 C 178.556 142.883,190.708 160.585,195.719 168.940 L 197.653 172.166 200.762 172.166 L 203.871 172.166 203.871 145.086 L 203.871 118.006 202.673 117.782 C 202.014 117.659,200.479 117.610,199.263 117.673 L 197.051 117.788 196.955 137.496 C 196.903 148.336,196.735 157.329,196.584 157.481 C 196.119 157.945,195.706 157.432,191.929 151.705 C 188.776 146.924,182.872 138.485,181.484 136.777 C 181.236 136.471,179.689 134.479,178.045 132.350 C 174.248 127.433,170.995 123.471,167.466 119.468 C 166.005 117.812,163.116 117.122,160.645 117.839 M215.392 117.848 C 215.029 117.994,214.931 123.792,214.931 145.100 L 214.931 172.166 218.433 172.166 L 221.935 172.166 221.935 151.591 C 221.935 135.210,222.034 130.882,222.418 130.356 C 222.957 129.620,224.850 131.796,231.693 141.014 C 233.499 143.447,235.415 146.018,235.950 146.728 C 238.061 149.524,247.039 163.024,249.751 167.480 L 252.621 172.194 255.619 172.088 L 258.618 171.982 258.712 145.092 C 258.787 123.825,258.710 118.142,258.343 117.909 C 257.800 117.564,253.230 117.502,252.380 117.827 C 251.859 118.028,251.797 120.105,251.792 137.459 C 251.787 154.720,251.627 158.532,250.942 157.777 C 250.856 157.682,249.158 155.115,247.171 152.074 C 245.183 149.032,243.450 146.461,243.321 146.359 C 243.191 146.258,242.524 145.346,241.838 144.332 C 234.637 133.690,221.903 118.206,220.048 117.834 C 218.716 117.568,216.066 117.576,215.392 117.848 M264.614 117.857 C 263.817 118.065,264.996 120.343,273.168 134.378 C 274.649 136.922,280.194 145.982,281.607 148.168 L 283.134 150.529 283.134 161.347 L 283.134 172.166 286.621 172.166 L 290.108 172.166 290.215 161.014 L 290.323 149.862 292.449 146.630 C 294.809 143.041,301.812 131.451,303.527 128.295 C 304.133 127.180,304.935 125.827,305.310 125.289 C 305.684 124.750,305.991 124.230,305.991 124.133 C 305.991 124.036,306.734 122.652,307.642 121.058 C 309.586 117.648,309.599 117.666,305.069 117.635 C 301.392 117.610,301.723 117.344,299.148 122.396 C 293.926 132.645,287.596 143.410,286.793 143.410 C 286.049 143.410,279.688 132.604,274.923 123.245 C 273.107 119.677,272.023 117.947,271.521 117.812 C 270.657 117.580,265.545 117.613,264.614 117.857 M70.262 188.603 C 55.834 192.534,54.290 210.052,67.834 216.147 C 68.949 216.649,72.101 217.933,74.839 219.001 C 83.835 222.511,86.267 224.934,86.267 230.388 C 86.267 236.610,80.989 239.366,70.728 238.500 C 67.499 238.227,61.882 236.729,61.032 235.912 C 59.976 234.898,57.880 238.036,57.880 240.633 C 57.880 242.715,68.028 245.019,75.708 244.681 C 87.995 244.139,93.730 239.557,93.795 230.230 C 93.857 221.234,90.560 217.716,77.051 212.368 C 69.030 209.193,65.931 206.306,66.019 202.089 C 66.172 194.705,75.641 191.857,86.985 195.783 C 89.564 196.675,89.529 196.693,90.629 193.960 C 91.966 190.641,91.337 190.143,83.616 188.407 C 81.223 187.870,72.485 187.998,70.262 188.603 M158.525 188.446 C 155.187 189.356,154.482 189.616,151.996 190.854 C 136.632 198.508,133.402 224.601,146.205 237.633 C 152.457 243.997,163.608 246.562,172.621 243.709 C 196.186 236.251,196.779 197.663,173.456 189.309 C 170.017 188.077,161.651 187.593,158.525 188.446 M220.461 188.424 C 214.551 189.976,211.775 191.493,208.093 195.183 C 202.403 200.886,199.872 208.200,200.301 217.696 C 200.588 224.045,201.282 226.983,203.567 231.521 C 213.026 250.305,242.387 248.902,249.865 229.309 C 255.733 213.931,250.783 197.079,238.525 190.706 C 236.605 189.708,235.583 189.348,232.031 188.416 C 230.215 187.940,222.282 187.945,220.461 188.424 M264.578 189.370 C 264.442 189.505,264.332 201.782,264.332 216.651 L 264.332 243.687 267.834 243.687 L 271.336 243.687 271.336 222.695 C 271.336 211.149,271.475 201.617,271.645 201.512 C 272.359 201.071,280.732 211.606,286.851 220.645 C 287.949 222.267,288.955 223.677,289.086 223.779 C 289.358 223.989,298.462 237.994,300.554 241.421 L 301.938 243.687 304.888 243.687 L 307.839 243.687 307.744 216.498 L 307.650 189.309 304.332 189.309 L 301.014 189.309 300.918 209.017 C 300.866 219.857,300.685 228.863,300.516 229.032 C 300.348 229.201,298.128 226.221,295.584 222.411 C 291.536 216.350,289.837 213.930,286.336 209.243 C 281.005 202.106,274.121 193.596,271.180 190.507 C 269.894 189.157,265.540 188.407,264.578 189.370 M383.621 190.054 C 383.231 190.350,382.982 190.662,383.068 190.748 C 383.155 190.834,383.617 190.587,384.096 190.199 C 385.104 189.381,384.681 189.252,383.621 190.054 M167.343 194.332 C 186.562 197.622,188.600 232.013,169.920 237.827 C 156.774 241.919,145.992 232.184,145.991 216.221 C 145.990 201.577,155.101 192.237,167.343 194.332 M229.587 194.428 C 242.746 196.938,248.938 214.559,241.783 229.138 C 235.597 241.742,216.877 241.746,210.544 229.143 C 206.673 221.439,206.915 209.624,211.090 202.495 C 214.766 196.219,222.132 193.006,229.587 194.428 M110.396 199.228 C 108.331 200.128,105.941 203.758,105.029 207.379 C 103.749 212.462,108.077 218.249,113.159 218.249 L 115.011 218.249 115.948 216.400 C 120.536 207.344,116.985 196.358,110.396 199.228 M109.944 224.982 C 108.713 228.386,109.597 230.820,111.896 230.355 C 113.435 230.044,114.216 224.152,112.719 224.142 C 112.263 224.140,111.553 224.047,111.142 223.937 C 110.548 223.777,110.301 223.992,109.944 224.982 M372.819 248.129 C 372.790 248.516,372.921 248.929,373.111 249.047 C 373.301 249.164,373.456 248.928,373.456 248.523 C 373.456 247.562,372.888 247.210,372.819 248.129 M98.567 278.245 C 97.368 279.046,96.300 283.885,96.878 285.899 C 97.207 287.045,99.729 287.859,103.101 287.909 C 104.808 287.934,105.806 285.742,105.806 281.965 L 105.806 279.186 103.134 278.746 C 101.664 278.504,100.129 278.229,99.724 278.136 C 99.318 278.042,98.797 278.091,98.567 278.245 M88.600 297.327 C 88.602 298.747,88.669 299.282,88.748 298.517 C 88.828 297.752,88.827 296.591,88.745 295.936 C 88.664 295.282,88.599 295.908,88.600 297.327 M320.657 300.205 C 321.168 300.435,321.631 300.451,321.835 300.246 C 322.039 300.041,321.707 299.892,320.994 299.867 C 319.897 299.829,319.874 299.852,320.657 300.205 " stroke="none" fill="#fbf7d3" fill-rule="evenodd"></path><path id="path2" d="M115.207 183.439 C 114.194 183.952,112.827 184.930,112.170 185.613 L 110.977 186.854 113.461 186.802 C 120.777 186.651,124.977 193.808,124.977 206.427 C 124.977 212.837,123.246 215.820,118.103 218.274 C 116.789 218.901,115.664 219.608,115.602 219.845 C 115.541 220.083,115.056 222.433,114.525 225.069 C 113.648 229.418,113.267 231.150,112.049 236.313 C 111.834 237.226,111.574 238.470,111.472 239.078 C 111.370 239.687,111.144 240.516,110.970 240.922 C 110.795 241.327,110.563 242.406,110.453 243.318 C 110.343 244.230,109.998 246.719,109.687 248.848 C 109.377 250.977,108.951 254.295,108.741 256.221 C 108.531 258.147,108.173 261.382,107.944 263.410 C 107.716 265.438,107.504 268.507,107.473 270.230 C 107.332 278.051,106.380 285.325,105.205 287.555 C 104.283 289.303,104.110 290.138,104.670 290.138 C 107.580 290.138,108.916 284.361,111.150 262.120 C 112.915 244.552,116.534 223.071,118.141 220.617 C 118.436 220.167,119.359 219.647,120.271 219.418 C 129.061 217.205,133.375 201.866,128.376 190.599 C 125.733 184.640,119.516 181.261,115.207 183.439 " stroke="none" fill="#4c4a46" fill-rule="evenodd"></path><path id="path3" d="M214.340 18.375 C 212.049 20.621,209.770 23.258,209.770 23.662 C 209.770 23.895,209.675 23.992,209.560 23.876 C 209.098 23.414,206.400 26.884,206.244 28.140 C 206.098 29.314,221.253 50.692,222.995 51.768 C 223.411 52.025,226.524 50.314,230.783 47.489 C 233.193 45.890,233.932 44.660,233.027 43.755 C 232.807 43.535,232.627 43.088,232.627 42.761 C 232.627 42.434,232.336 41.839,231.982 41.438 C 230.858 40.170,229.559 38.224,230.029 38.515 C 230.474 38.790,228.911 36.161,227.915 34.960 C 227.245 34.153,226.028 32.060,225.753 31.244 C 225.634 30.889,225.390 30.599,225.210 30.599 C 225.031 30.599,224.885 30.382,224.885 30.116 C 224.885 29.850,224.553 29.276,224.147 28.841 C 223.742 28.405,223.410 27.870,223.410 27.650 C 223.410 27.276,222.022 25.105,221.524 24.700 C 221.400 24.599,221.181 24.143,221.039 23.687 C 220.896 23.230,220.615 22.857,220.414 22.857 C 220.213 22.857,220.151 22.691,220.276 22.488 C 220.402 22.286,220.329 22.120,220.114 22.120 C 219.899 22.120,219.724 21.953,219.724 21.750 C 219.724 21.098,217.659 18.040,217.396 18.302 C 217.257 18.442,217.143 18.280,217.143 17.942 C 217.143 16.956,215.534 17.204,214.340 18.375 M147.324 23.029 C 146.996 23.528,146.728 24.275,146.728 24.687 C 146.728 25.100,146.590 25.438,146.421 25.438 C 146.252 25.438,146.086 25.687,146.052 25.991 C 146.018 26.295,145.963 26.793,145.929 27.097 C 145.896 27.401,145.702 27.650,145.499 27.650 C 145.296 27.650,145.234 27.753,145.361 27.880 C 145.487 28.006,145.266 28.746,144.869 29.524 C 144.472 30.302,144.147 31.277,144.147 31.690 C 144.147 32.104,143.982 32.442,143.779 32.442 C 143.576 32.442,143.410 32.693,143.410 33.000 C 143.410 33.307,143.216 33.869,142.979 34.248 C 141.998 35.819,143.486 37.528,148.396 40.466 C 149.405 41.070,152.802 43.182,155.945 45.161 C 168.602 53.130,166.955 52.690,169.863 48.877 C 174.482 42.820,175.154 41.363,173.689 40.579 C 173.310 40.376,172.869 40.329,172.708 40.474 C 172.548 40.619,172.536 40.530,172.682 40.276 C 172.827 40.023,172.796 39.816,172.611 39.816 C 172.426 39.816,171.754 39.318,171.118 38.710 C 170.481 38.101,169.788 37.604,169.577 37.604 C 169.366 37.604,169.098 37.355,168.981 37.051 C 168.865 36.747,168.579 36.498,168.346 36.498 C 168.114 36.498,167.454 36.000,166.880 35.392 C 166.306 34.783,165.632 34.286,165.383 34.286 C 165.134 34.286,164.454 33.788,163.871 33.180 C 163.288 32.571,162.594 32.074,162.327 32.074 C 162.061 32.074,161.843 31.908,161.843 31.705 C 161.843 31.502,161.680 31.336,161.481 31.336 C 161.282 31.336,160.340 30.590,159.388 29.677 C 158.435 28.765,157.437 28.018,157.169 28.018 C 156.901 28.018,156.682 27.853,156.682 27.650 C 156.682 27.447,156.493 27.281,156.261 27.281 C 156.030 27.281,155.365 26.784,154.785 26.177 C 154.204 25.569,153.644 25.076,153.541 25.080 C 153.071 25.098,150.814 23.318,151.031 23.101 C 151.165 22.967,150.708 22.855,150.015 22.851 C 149.066 22.847,148.892 22.758,149.309 22.488 C 149.796 22.174,149.794 22.130,149.290 22.125 C 148.976 22.122,148.495 22.327,148.222 22.581 C 147.825 22.949,147.778 22.949,147.986 22.581 C 148.458 21.745,147.931 22.101,147.324 23.029 M279.631 35.818 C 279.023 36.187,278.359 36.558,278.157 36.643 C 276.984 37.130,276.281 37.345,276.037 37.294 C 275.885 37.261,275.760 37.411,275.760 37.625 C 275.760 37.840,275.594 37.913,275.392 37.788 C 275.189 37.663,275.023 37.746,275.023 37.972 C 275.023 38.199,274.879 38.295,274.702 38.186 C 274.526 38.077,273.904 38.399,273.320 38.902 C 272.736 39.404,271.978 39.815,271.635 39.815 C 271.292 39.815,270.909 39.982,270.783 40.184 C 270.658 40.387,270.234 40.553,269.840 40.553 C 269.199 40.553,268.953 40.941,269.081 41.751 C 269.105 41.903,268.959 42.028,268.756 42.028 C 268.152 42.028,268.332 43.932,269.284 47.602 C 269.777 49.504,270.699 53.051,271.332 55.484 C 271.966 57.917,273.054 62.128,273.749 64.841 C 275.326 70.995,275.157 70.786,278.059 70.171 C 279.329 69.901,281.845 69.367,283.649 68.983 C 287.245 68.218,288.734 66.877,287.575 65.450 C 287.404 65.241,287.175 64.240,287.065 63.226 C 286.956 62.212,286.678 60.304,286.448 58.986 C 285.729 54.871,285.441 52.546,285.613 52.242 C 285.703 52.081,285.597 51.732,285.377 51.466 C 285.156 51.201,284.954 50.050,284.928 48.910 C 284.902 47.769,284.772 46.904,284.639 46.986 C 284.506 47.068,284.385 46.857,284.369 46.517 C 284.229 43.445,284.070 42.028,283.867 42.028 C 283.734 42.028,283.595 41.737,283.558 41.382 C 283.327 39.179,283.239 38.485,283.148 38.157 C 283.092 37.954,283.072 37.646,283.103 37.473 C 283.134 37.299,282.967 36.926,282.733 36.643 C 282.498 36.360,282.421 36.129,282.562 36.129 C 282.703 36.129,282.596 35.908,282.326 35.637 C 281.660 34.972,280.946 35.020,279.631 35.818 M86.903 49.309 C 86.538 50.005,86.624 53.182,87.021 53.660 C 87.334 54.037,87.342 54.194,87.050 54.194 C 86.822 54.194,86.636 54.442,86.636 54.747 C 86.636 55.051,86.760 55.300,86.912 55.301 C 87.065 55.302,87.237 57.169,87.295 59.449 C 87.433 64.822,87.445 64.834,93.641 66.145 C 96.175 66.681,98.954 67.280,99.816 67.477 C 102.236 68.029,104.312 68.471,106.728 68.950 C 107.945 69.191,109.398 69.528,109.958 69.699 C 110.517 69.870,111.929 70.118,113.095 70.250 L 115.214 70.490 116.645 65.090 C 118.524 57.998,117.438 56.366,110.541 55.919 C 110.003 55.884,109.639 55.730,109.734 55.577 C 109.884 55.335,109.711 55.276,108.936 55.307 C 108.833 55.311,108.237 55.050,107.612 54.727 C 106.987 54.404,106.386 54.229,106.277 54.338 C 106.168 54.447,105.731 54.293,105.307 53.996 C 104.883 53.699,104.076 53.456,103.512 53.456 C 102.949 53.456,102.488 53.312,102.488 53.136 C 102.488 52.960,101.835 52.728,101.036 52.621 C 100.237 52.514,99.050 52.160,98.399 51.835 C 97.747 51.510,96.825 51.244,96.349 51.244 C 95.873 51.244,95.484 51.078,95.484 50.876 C 95.484 50.673,95.122 50.507,94.681 50.507 C 93.832 50.507,91.680 49.899,90.604 49.356 C 89.822 48.961,87.104 48.926,86.903 49.309 M333.458 73.366 C 333.599 73.595,333.189 73.670,332.374 73.566 C 331.652 73.474,329.693 73.639,328.020 73.934 C 326.346 74.228,324.410 74.469,323.717 74.470 C 323.025 74.470,322.567 74.580,322.701 74.714 C 322.835 74.848,322.589 75.138,322.154 75.359 C 321.059 75.915,320.866 76.418,320.373 80.000 C 320.135 81.724,319.789 84.046,319.602 85.161 C 318.182 93.658,316.682 104.844,316.932 105.078 C 317.098 105.234,317.899 105.441,318.710 105.537 C 329.359 106.796,329.585 106.768,329.585 104.180 C 329.585 103.736,329.793 103.150,330.046 102.877 C 330.419 102.475,330.408 102.437,329.989 102.676 C 329.605 102.895,329.556 102.837,329.799 102.453 C 329.979 102.168,330.129 101.671,330.133 101.347 C 330.136 101.023,330.325 100.526,330.553 100.241 C 330.994 99.690,331.351 98.178,331.676 95.484 C 331.786 94.571,332.066 93.586,332.298 93.293 C 332.617 92.891,332.613 92.825,332.283 93.023 C 332.024 93.179,332.089 92.800,332.445 92.087 C 332.773 91.428,333.095 90.404,333.160 89.810 C 333.225 89.217,333.431 88.548,333.617 88.323 C 333.803 88.099,334.034 87.232,334.130 86.398 C 334.226 85.564,334.487 84.541,334.710 84.124 C 334.933 83.707,335.115 82.858,335.115 82.236 C 335.115 81.615,335.281 81.106,335.484 81.106 C 335.687 81.106,335.860 80.650,335.869 80.092 C 335.888 78.894,336.686 75.726,337.064 75.348 C 337.542 74.870,337.338 73.733,336.774 73.733 C 336.470 73.733,336.221 73.594,336.221 73.424 C 336.221 73.255,335.548 73.090,334.726 73.058 C 333.813 73.022,333.319 73.142,333.458 73.366 M70.378 92.683 C 70.297 92.758,66.747 92.917,62.488 93.037 C 47.526 93.456,42.208 93.728,41.749 94.098 C 41.257 94.495,41.247 96.590,41.737 96.590 C 41.897 96.590,42.028 96.922,42.028 97.327 C 42.028 97.733,42.194 98.065,42.396 98.065 C 42.599 98.065,42.765 98.406,42.765 98.824 C 42.765 99.241,42.931 99.480,43.134 99.355 C 43.336 99.230,43.502 99.386,43.502 99.702 C 43.502 100.018,43.678 100.276,43.893 100.276 C 44.107 100.276,44.182 100.441,44.058 100.641 C 43.842 100.991,44.862 103.581,45.366 103.963 C 45.500 104.065,45.955 104.935,46.378 105.897 C 47.556 108.580,47.756 108.610,56.630 107.461 C 66.644 106.164,69.078 105.853,71.461 105.565 C 72.544 105.435,73.511 105.116,73.610 104.856 C 74.381 102.848,71.425 91.714,70.378 92.683 M77.604 116.664 C 69.317 119.131,65.757 123.714,65.848 131.797 C 65.919 138.045,68.921 142.500,74.839 145.138 C 77.932 146.517,79.337 147.089,81.475 147.839 C 91.149 151.236,94.741 155.290,93.094 160.953 C 91.241 167.329,77.967 168.872,68.264 163.838 C 67.003 163.184,66.343 163.768,65.647 166.154 C 65.362 167.129,64.951 168.217,64.733 168.573 C 63.895 169.940,66.988 171.778,71.889 172.825 C 76.660 173.844,78.026 174.009,81.659 174.009 C 94.883 174.009,101.911 168.631,101.895 158.525 C 101.880 149.351,98.566 145.995,83.554 139.957 C 76.715 137.206,74.101 134.610,74.101 130.568 C 74.101 124.207,82.638 121.366,92.535 124.434 C 97.397 125.942,97.271 125.975,98.536 122.862 C 99.985 119.299,99.490 118.608,94.562 117.312 C 93.751 117.099,92.405 116.746,91.570 116.527 C 89.576 116.004,79.489 116.103,77.604 116.664 M90.876 117.034 C 92.498 117.328,94.323 117.723,94.931 117.912 C 96.064 118.263,99.172 119.485,99.169 119.579 C 99.148 120.385,96.861 125.143,96.517 125.096 C 96.253 125.060,94.824 124.606,93.341 124.086 C 83.039 120.478,73.733 123.620,73.733 130.707 C 73.733 135.673,75.634 137.249,87.742 142.319 C 98.328 146.752,101.648 150.899,101.324 159.287 C 100.904 170.175,89.170 175.933,73.917 172.733 C 65.819 171.035,64.868 170.349,65.966 167.002 C 67.021 163.783,66.874 163.853,69.913 165.106 C 83.639 170.767,97.398 165.268,93.414 155.713 C 91.866 152.001,89.530 150.376,80.818 146.955 C 69.463 142.495,66.711 139.676,66.426 132.212 C 65.979 120.491,75.919 114.320,90.876 117.034 M107.908 117.469 C 107.332 118.045,107.618 155.761,108.218 158.348 C 110.582 168.542,117.589 173.953,128.479 173.996 C 140.401 174.043,147.721 167.895,149.530 156.313 C 150.259 151.648,150.260 118.240,149.531 117.635 C 149.196 117.357,147.745 117.244,145.383 117.313 L 141.751 117.419 141.550 136.774 C 141.338 157.216,141.341 157.173,139.512 160.788 C 135.735 168.252,122.378 168.527,118.101 161.229 C 115.992 157.629,115.999 157.706,115.779 136.774 L 115.576 117.419 111.871 117.315 C 109.833 117.258,108.049 117.327,107.908 117.469 M159.877 117.481 C 159.274 118.084,159.606 172.446,160.214 172.679 C 160.965 172.967,165.829 172.961,166.912 172.671 L 167.742 172.449 167.742 151.662 C 167.742 140.229,167.830 130.876,167.938 130.876 C 168.190 130.876,170.073 133.023,171.754 135.227 C 172.479 136.180,173.280 137.207,173.532 137.512 C 177.375 142.146,189.166 159.297,194.569 168.111 C 195.874 170.240,197.206 172.189,197.528 172.442 C 198.178 172.954,203.030 173.075,203.781 172.598 C 204.148 172.365,204.225 166.571,204.150 144.862 L 204.055 117.419 200.184 117.419 L 196.313 117.419 196.218 136.866 C 196.165 147.562,196.000 156.308,195.849 156.301 C 195.699 156.295,194.586 154.760,193.375 152.891 C 190.159 147.924,184.569 139.924,182.372 137.143 C 182.132 136.839,180.992 135.346,179.838 133.825 C 174.894 127.308,174.692 127.056,170.070 121.657 C 168.208 119.481,166.411 117.596,166.077 117.468 C 165.269 117.158,160.190 117.168,159.877 117.481 M214.808 117.481 C 214.205 118.084,214.537 172.446,215.145 172.679 C 216.225 173.094,221.769 172.923,222.230 172.461 C 222.564 172.128,222.676 166.918,222.687 151.355 L 222.702 130.691 224.254 132.379 C 225.650 133.896,231.721 141.856,236.445 148.363 C 239.110 152.034,247.683 165.053,249.585 168.317 C 252.158 172.734,252.381 172.904,255.559 172.898 C 257.039 172.894,258.457 172.760,258.712 172.598 C 259.079 172.365,259.156 166.571,259.081 144.862 L 258.986 117.419 255.330 117.313 C 252.653 117.235,251.593 117.334,251.373 117.682 C 251.207 117.943,251.069 126.742,251.066 137.235 C 251.062 147.728,250.935 156.309,250.783 156.303 C 250.631 156.297,249.435 154.604,248.124 152.540 C 241.525 142.149,223.587 118.882,221.183 117.595 C 220.429 117.192,215.191 117.098,214.808 117.481 M263.594 117.928 C 263.594 118.322,264.233 119.778,265.015 121.165 C 265.796 122.552,266.850 124.433,267.359 125.346 C 267.867 126.258,268.638 127.627,269.072 128.387 C 269.506 129.147,270.170 130.309,270.546 130.968 C 273.417 135.994,276.886 141.690,280.608 147.487 L 282.396 150.273 282.396 161.207 C 282.396 173.892,282.038 172.903,286.636 172.903 C 291.235 172.903,290.876 173.899,290.876 161.161 L 290.876 150.182 293.324 146.335 C 298.088 138.849,304.101 128.648,308.443 120.686 C 310.369 117.155,310.405 117.194,305.382 117.315 L 301.086 117.419 298.636 122.212 C 295.549 128.250,293.485 132.021,290.994 136.176 C 289.915 137.976,289.032 139.514,289.032 139.594 C 289.032 139.940,287.065 142.673,286.816 142.673 C 286.596 142.673,282.658 136.393,280.690 132.904 C 279.283 130.409,276.405 124.958,274.657 121.475 L 272.621 117.419 268.108 117.316 C 263.850 117.218,263.594 117.253,263.594 117.928 M114.550 117.833 L 115.367 118.052 115.472 137.459 C 115.587 158.913,115.544 158.497,118.055 162.148 C 122.895 169.184,136.367 168.509,139.978 161.050 C 142.156 156.550,142.298 154.970,142.301 135.224 L 142.304 118.006 143.502 117.782 C 144.161 117.659,145.696 117.610,146.912 117.673 L 149.124 117.788 149.124 137.512 C 149.124 161.388,148.885 162.710,143.605 167.926 C 132.775 178.626,113.139 173.829,108.989 159.471 C 108.032 156.161,107.551 118.496,108.458 117.921 C 109.012 117.569,113.334 117.507,114.550 117.833 M167.466 119.468 C 170.995 123.471,174.248 127.433,178.045 132.350 C 179.689 134.479,181.236 136.471,181.484 136.777 C 182.872 138.485,188.776 146.924,191.929 151.705 C 195.706 157.432,196.119 157.945,196.584 157.481 C 196.735 157.329,196.903 148.336,196.955 137.496 L 197.051 117.788 199.263 117.673 C 200.479 117.610,202.014 117.659,202.673 117.782 L 203.871 118.006 203.871 145.086 L 203.871 172.166 200.762 172.166 L 197.653 172.166 195.719 168.940 C 190.708 160.585,178.556 142.883,173.386 136.406 C 169.218 131.184,168.256 130.127,167.760 130.223 C 167.254 130.320,167.178 132.706,167.094 151.249 L 166.999 172.166 163.499 172.166 L 160.000 172.166 160.000 145.096 C 160.000 119.633,160.038 118.015,160.645 117.839 C 163.116 117.122,166.005 117.812,167.466 119.468 M220.048 117.834 C 221.903 118.206,234.637 133.690,241.838 144.332 C 242.524 145.346,243.191 146.258,243.321 146.359 C 243.450 146.461,245.183 149.032,247.171 152.074 C 249.158 155.115,250.856 157.682,250.942 157.777 C 251.627 158.532,251.787 154.720,251.792 137.459 C 251.797 120.105,251.859 118.028,252.380 117.827 C 253.230 117.502,257.800 117.564,258.343 117.909 C 258.710 118.142,258.787 123.825,258.712 145.092 L 258.618 171.982 255.619 172.088 L 252.621 172.194 249.751 167.480 C 247.039 163.024,238.061 149.524,235.950 146.728 C 235.415 146.018,233.499 143.447,231.693 141.014 C 224.850 131.796,222.957 129.620,222.418 130.356 C 222.034 130.882,221.935 135.210,221.935 151.591 L 221.935 172.166 218.433 172.166 L 214.931 172.166 214.931 145.100 C 214.931 123.792,215.029 117.994,215.392 117.848 C 216.066 117.576,218.716 117.568,220.048 117.834 M271.521 117.812 C 272.023 117.947,273.107 119.677,274.923 123.245 C 279.688 132.604,286.049 143.410,286.793 143.410 C 287.596 143.410,293.926 132.645,299.148 122.396 C 301.723 117.344,301.392 117.610,305.069 117.635 C 309.599 117.666,309.586 117.648,307.642 121.058 C 306.734 122.652,305.991 124.036,305.991 124.133 C 305.991 124.230,305.684 124.750,305.310 125.289 C 304.935 125.827,304.133 127.180,303.527 128.295 C 301.812 131.451,294.809 143.041,292.449 146.630 L 290.323 149.862 290.215 161.014 L 290.108 172.166 286.621 172.166 L 283.134 172.166 283.134 161.347 L 283.134 150.529 281.607 148.168 C 280.194 145.982,274.649 136.922,273.168 134.378 C 264.996 120.343,263.817 118.065,264.614 117.857 C 265.545 117.613,270.657 117.580,271.521 117.812 M358.865 123.678 C 358.040 124.029,356.909 125.593,354.034 130.363 C 351.970 133.788,348.380 139.735,346.057 143.579 C 343.734 147.424,341.907 150.761,341.997 150.995 C 342.634 152.654,353.319 156.741,352.908 155.168 C 352.817 154.822,353.090 154.191,353.514 153.767 C 353.939 153.343,354.161 152.990,354.009 152.984 C 353.857 152.978,354.023 152.804,354.378 152.597 C 354.733 152.391,355.023 152.011,355.023 151.753 C 355.023 151.496,355.396 150.947,355.853 150.534 C 357.145 149.363,357.972 148.244,357.972 147.666 C 357.972 147.376,358.341 146.880,358.792 146.565 C 359.242 146.249,359.491 145.991,359.345 145.991 C 359.198 145.991,359.328 145.700,359.632 145.346 C 362.194 142.361,362.721 141.646,362.513 141.437 C 362.381 141.306,362.560 141.198,362.910 141.198 C 363.260 141.198,363.443 141.032,363.318 140.829 C 363.193 140.627,363.258 140.461,363.463 140.461 C 363.668 140.461,364.111 139.882,364.447 139.174 C 364.783 138.466,365.206 137.978,365.386 138.090 C 365.567 138.201,365.714 138.034,365.714 137.718 C 365.714 137.401,365.844 137.143,366.003 137.143 C 366.163 137.143,366.583 136.651,366.938 136.050 C 367.293 135.449,367.785 134.744,368.031 134.483 C 369.126 133.325,371.736 129.684,372.385 128.412 L 373.097 127.015 372.275 126.395 C 371.822 126.053,370.949 125.662,370.334 125.526 C 368.781 125.180,367.124 124.901,366.359 124.856 C 366.005 124.836,365.714 124.724,365.714 124.608 C 365.714 124.492,365.424 124.381,365.069 124.360 C 364.031 124.300,362.300 123.960,361.077 123.577 C 360.278 123.327,359.622 123.357,358.865 123.678 M41.290 141.567 C 41.290 141.770,40.968 141.935,40.575 141.935 C 40.181 141.935,39.757 142.101,39.631 142.304 C 39.506 142.507,39.072 142.673,38.666 142.673 C 38.261 142.673,38.031 142.839,38.157 143.041 C 38.374 143.393,37.909 143.556,37.001 143.448 C 36.772 143.420,35.731 143.826,34.689 144.349 C 33.647 144.872,32.478 145.324,32.091 145.354 C 31.704 145.383,31.469 145.538,31.568 145.699 C 31.667 145.859,31.251 145.991,30.643 145.991 C 30.034 145.991,29.434 146.157,29.309 146.359 C 29.183 146.562,28.749 146.728,28.344 146.728 C 27.938 146.728,27.709 146.894,27.834 147.097 C 27.967 147.312,27.592 147.465,26.934 147.465 C 26.314 147.465,25.806 147.631,25.806 147.834 C 25.806 148.037,25.309 148.203,24.700 148.203 C 24.092 148.203,23.594 148.335,23.594 148.497 C 23.594 148.834,21.434 149.677,20.572 149.677 C 20.256 149.677,19.792 149.926,19.539 150.230 C 19.287 150.535,18.785 150.783,18.424 150.783 C 17.424 150.783,16.859 152.728,17.640 153.479 C 17.975 153.801,18.415 154.241,18.618 154.456 C 20.041 155.968,22.487 158.036,22.654 157.868 C 22.766 157.756,22.857 157.871,22.857 158.122 C 22.857 158.373,23.106 158.827,23.410 159.131 C 23.714 159.435,23.963 159.576,23.963 159.445 C 23.963 159.314,24.393 159.717,24.918 160.340 C 26.601 162.341,27.530 162.086,37.893 156.774 C 42.937 154.189,47.458 151.809,47.941 151.486 L 48.818 150.898 46.275 146.623 C 44.475 143.598,43.483 142.287,42.880 142.135 C 42.411 142.018,42.028 141.759,42.028 141.560 C 42.028 141.361,41.862 141.198,41.659 141.198 C 41.456 141.198,41.290 141.364,41.290 141.567 M372.629 182.312 C 371.619 182.998,347.782 201.163,346.967 201.868 C 346.735 202.068,347.893 203.507,350.250 205.948 C 352.833 208.623,354.025 208.916,355.718 207.294 C 356.202 206.831,356.917 206.452,357.307 206.452 C 357.697 206.452,357.913 206.286,357.788 206.083 C 357.663 205.880,357.860 205.711,358.227 205.706 C 358.594 205.702,359.309 205.373,359.816 204.977 C 360.323 204.580,360.927 204.252,361.159 204.248 C 361.390 204.243,361.676 203.991,361.792 203.687 C 361.909 203.382,362.233 203.134,362.512 203.134 C 362.791 203.134,363.316 202.806,363.679 202.405 C 364.041 202.004,364.469 201.757,364.628 201.855 C 364.787 201.954,365.160 201.792,365.456 201.496 C 365.753 201.199,366.098 201.059,366.223 201.185 C 366.349 201.311,366.452 201.220,366.452 200.983 C 366.452 200.747,366.625 200.553,366.838 200.553 C 367.328 200.553,371.389 197.981,371.547 197.571 C 371.612 197.402,372.539 196.851,373.607 196.345 C 374.675 195.840,375.762 195.170,376.022 194.856 C 376.283 194.542,376.711 194.286,376.973 194.286 C 377.235 194.286,377.508 194.111,377.580 193.897 C 377.651 193.683,378.010 193.464,378.377 193.410 C 378.745 193.356,379.195 193.075,379.379 192.785 C 379.562 192.495,379.715 192.411,379.718 192.599 C 379.721 192.786,380.097 192.612,380.553 192.213 C 382.210 190.760,382.852 190.349,382.496 190.968 C 382.320 191.272,382.643 191.065,383.212 190.507 C 383.782 189.949,384.391 189.493,384.566 189.493 C 384.742 189.493,384.885 188.915,384.885 188.207 C 384.885 186.968,382.881 185.069,381.574 185.069 C 381.367 185.069,381.197 184.945,381.196 184.793 C 381.195 184.641,380.655 184.196,379.998 183.805 C 377.391 182.254,376.406 181.761,376.406 182.009 C 376.406 182.151,376.206 182.068,375.963 181.825 C 375.271 181.132,374.116 181.301,372.629 182.312 M72.627 187.640 C 63.142 189.038,58.433 194.055,58.433 202.765 C 58.433 211.350,61.491 214.495,74.771 219.569 C 83.098 222.750,85.793 225.317,85.871 230.142 C 85.958 235.627,82.481 237.895,73.917 237.940 C 68.411 237.968,67.118 237.737,62.319 235.860 C 59.080 234.594,59.159 234.546,57.836 238.582 L 56.987 241.170 57.883 241.845 C 60.096 243.515,68.839 245.517,73.917 245.517 C 87.935 245.517,96.287 238.127,94.398 227.396 C 93.132 220.199,89.387 216.667,78.490 212.395 C 68.605 208.519,66.065 205.893,66.889 200.399 C 67.669 195.198,77.141 192.933,85.530 195.941 C 90.082 197.573,89.655 197.704,91.001 194.264 C 92.562 190.277,92.329 190.051,84.608 188.063 C 82.579 187.541,75.094 187.276,72.627 187.640 M160.184 187.635 C 132.641 191.401,129.401 236.177,156.090 244.210 C 174.853 249.856,190.968 237.009,190.968 216.406 C 190.968 197.365,177.957 185.205,160.184 187.635 M222.673 187.506 C 205.131 189.593,194.971 209.009,201.473 228.018 C 208.850 249.590,239.393 251.693,249.668 231.336 C 254.563 221.640,253.438 205.589,247.291 197.410 C 241.931 190.278,232.218 186.371,222.673 187.506 M83.616 188.407 C 91.337 190.143,91.966 190.641,90.629 193.960 C 89.529 196.693,89.564 196.675,86.985 195.783 C 75.641 191.857,66.172 194.705,66.019 202.089 C 65.931 206.306,69.030 209.193,77.051 212.368 C 90.560 217.716,93.857 221.234,93.795 230.230 C 93.730 239.557,87.995 244.139,75.708 244.681 C 68.028 245.019,57.880 242.715,57.880 240.633 C 57.880 238.036,59.976 234.898,61.032 235.912 C 61.882 236.729,67.499 238.227,70.728 238.500 C 80.989 239.366,86.267 236.610,86.267 230.388 C 86.267 224.934,83.835 222.511,74.839 219.001 C 72.101 217.933,68.949 216.649,67.834 216.147 C 54.290 210.052,55.834 192.534,70.262 188.603 C 72.485 187.998,81.223 187.870,83.616 188.407 M170.691 188.545 C 196.279 194.854,197.710 235.768,172.621 243.709 C 163.608 246.562,152.457 243.997,146.205 237.633 C 133.402 224.601,136.632 198.508,151.996 190.854 C 154.482 189.616,155.187 189.356,158.525 188.446 C 160.494 187.909,168.373 187.973,170.691 188.545 M232.031 188.416 C 235.583 189.348,236.605 189.708,238.525 190.706 C 257.592 200.618,256.811 233.762,237.304 242.572 C 223.063 249.004,205.263 241.194,201.612 226.912 C 198.342 214.125,200.697 202.596,208.093 195.183 C 211.775 191.493,214.551 189.976,220.461 188.424 C 222.282 187.945,230.215 187.940,232.031 188.416 M264.214 188.848 C 263.632 189.276,263.594 191.270,263.683 216.590 L 263.779 243.871 267.739 243.976 L 271.699 244.080 271.794 222.967 L 271.889 201.854 275.042 205.720 C 278.741 210.255,283.660 216.853,286.446 221.014 C 287.531 222.636,288.522 224.046,288.647 224.147 C 288.952 224.395,297.512 237.378,297.512 237.593 C 297.512 237.686,298.429 239.184,299.550 240.923 L 301.589 244.083 304.988 243.977 L 308.387 243.871 308.483 216.590 C 308.572 191.270,308.533 189.276,307.951 188.848 C 307.305 188.372,302.128 188.195,301.044 188.611 C 300.522 188.811,300.461 190.892,300.461 208.323 C 300.461 230.211,300.640 229.153,297.698 224.600 C 290.041 212.751,276.886 195.485,271.125 189.724 C 269.666 188.265,265.692 187.762,264.214 188.848 M271.180 190.507 C 274.121 193.596,281.005 202.106,286.336 209.243 C 289.837 213.930,291.536 216.350,295.584 222.411 C 298.128 226.221,300.348 229.201,300.516 229.032 C 300.685 228.863,300.866 219.857,300.918 209.017 L 301.014 189.309 304.332 189.309 L 307.650 189.309 307.744 216.498 L 307.839 243.687 304.888 243.687 L 301.938 243.687 300.554 241.421 C 298.462 237.994,289.358 223.989,289.086 223.779 C 288.955 223.677,287.949 222.267,286.851 220.645 C 280.732 211.606,272.359 201.071,271.645 201.512 C 271.475 201.617,271.336 211.149,271.336 222.695 L 271.336 243.687 267.834 243.687 L 264.332 243.687 264.332 216.651 C 264.332 201.782,264.442 189.505,264.578 189.370 C 265.540 188.407,269.894 189.157,271.180 190.507 M160.922 194.453 C 151.321 196.466,145.990 204.238,145.991 216.221 C 145.992 230.089,152.971 238.505,164.483 238.521 C 175.723 238.536,182.520 230.310,182.562 216.644 C 182.609 201.240,173.433 191.830,160.922 194.453 M222.673 194.437 C 210.983 196.570,204.986 210.083,208.960 225.333 C 213.019 240.904,234.770 243.426,241.783 229.138 C 250.551 211.272,239.581 191.352,222.673 194.437 M168.152 195.028 C 173.862 196.103,179.079 201.028,180.772 206.941 C 181.997 211.221,182.120 212.054,182.120 216.080 C 182.120 228.467,176.606 236.461,167.118 237.831 C 153.488 239.800,144.154 227.629,146.868 211.429 C 148.898 199.319,157.153 192.958,168.152 195.028 M230.054 195.025 C 246.500 198.143,249.397 228.720,233.967 236.316 C 220.806 242.796,208.648 233.283,208.520 216.406 C 208.481 211.276,208.590 210.475,209.849 206.636 C 212.711 197.913,220.793 193.268,230.054 195.025 M110.489 196.512 C 100.093 202.146,102.803 219.140,114.002 218.542 C 116.888 218.388,117.186 218.127,118.325 214.747 C 121.907 204.115,117.100 192.930,110.489 196.512 M35.213 197.506 C 34.810 197.608,34.210 198.003,33.879 198.385 C 33.548 198.766,33.093 199.078,32.868 199.078 C 32.643 199.078,32.184 199.498,31.848 200.012 C 31.512 200.525,31.163 200.871,31.073 200.781 C 30.924 200.633,29.156 202.171,25.972 205.220 C 25.303 205.860,24.854 206.483,24.974 206.602 C 25.176 206.805,24.505 206.964,23.871 206.864 C 23.719 206.840,23.636 207.028,23.687 207.281 C 23.737 207.535,23.582 207.704,23.340 207.657 C 23.099 207.611,22.798 207.901,22.670 208.302 C 22.543 208.704,22.284 209.032,22.095 209.032 C 21.278 209.032,17.327 213.037,17.327 213.865 C 17.327 214.476,19.765 216.402,20.546 216.408 C 20.702 216.409,21.303 216.657,21.882 216.959 C 22.460 217.261,23.083 217.416,23.264 217.303 C 23.446 217.191,23.594 217.243,23.594 217.419 C 23.594 217.831,26.206 218.986,27.139 218.986 C 28.066 218.986,29.276 218.124,30.930 216.286 C 31.660 215.474,32.429 214.630,32.639 214.410 C 36.265 210.597,43.523 202.282,43.435 202.042 C 43.371 201.866,41.998 200.712,40.386 199.478 C 37.596 197.344,36.900 197.079,35.213 197.506 M115.375 199.856 C 118.593 203.074,118.856 210.661,115.948 216.400 L 115.011 218.249 113.159 218.249 C 108.077 218.249,103.749 212.462,105.029 207.379 C 106.781 200.423,112.085 196.566,115.375 199.856 M110.047 223.775 C 109.914 224.381,109.652 224.971,109.465 225.087 C 109.013 225.366,109.028 230.112,109.484 231.312 C 109.915 232.446,111.534 232.619,112.298 231.613 C 113.019 230.663,112.922 230.086,112.080 230.306 C 110.236 230.788,109.493 230.163,109.493 228.130 C 109.493 225.426,110.180 223.678,111.142 223.937 C 111.553 224.047,112.263 224.140,112.719 224.142 C 113.446 224.147,113.548 224.338,113.548 225.684 C 113.548 227.623,113.747 227.418,114.040 225.176 L 114.268 223.440 112.894 223.058 C 110.730 222.457,110.313 222.562,110.047 223.775 M359.631 242.451 C 353.029 244.558,346.652 246.572,341.751 248.097 C 339.622 248.760,336.899 249.614,335.699 249.996 C 334.500 250.379,333.309 250.691,333.053 250.691 C 331.651 250.691,331.452 251.727,332.398 254.102 C 333.544 256.978,334.367 257.753,335.831 257.333 C 336.421 257.164,336.993 257.116,337.103 257.226 C 337.213 257.336,337.765 257.241,338.329 257.015 C 338.893 256.789,339.951 256.544,340.680 256.470 C 341.409 256.396,342.167 256.235,342.366 256.113 C 342.564 255.990,343.460 255.855,344.358 255.811 C 345.256 255.768,346.157 255.615,346.359 255.473 C 346.562 255.331,347.226 255.107,347.834 254.976 C 348.442 254.846,349.313 254.658,349.770 254.558 C 351.002 254.290,352.448 254.033,354.101 253.788 C 354.912 253.667,355.991 253.496,356.498 253.407 C 357.005 253.318,358.320 253.089,359.420 252.899 C 360.520 252.708,361.515 252.404,361.632 252.224 C 361.748 252.043,362.175 251.903,362.581 251.912 C 364.343 251.952,365.374 251.773,365.181 251.461 C 365.067 251.276,365.425 251.174,365.976 251.235 C 367.274 251.377,367.988 251.093,367.669 250.560 C 367.530 250.328,367.709 250.376,368.068 250.668 C 368.449 250.977,368.823 251.054,368.968 250.852 C 369.105 250.662,369.867 250.449,370.661 250.379 C 372.911 250.179,373.843 248.001,372.195 246.796 C 371.881 246.567,371.698 246.305,371.788 246.215 C 371.878 246.125,371.562 245.598,371.086 245.043 C 370.609 244.489,369.836 243.475,369.367 242.791 C 368.571 241.630,366.664 240.682,365.303 240.771 C 365.022 240.789,362.470 241.545,359.631 242.451 M52.442 250.597 C 51.607 251.013,51.244 251.452,51.244 252.048 C 51.244 252.519,51.078 252.903,50.876 252.903 C 50.673 252.903,50.507 253.235,50.507 253.641 C 50.507 254.046,50.341 254.378,50.138 254.378 C 49.935 254.378,49.770 254.592,49.770 254.853 C 49.770 255.380,48.579 257.831,47.961 258.576 C 47.742 258.839,47.673 259.163,47.807 259.297 C 47.940 259.430,47.869 259.539,47.648 259.539 C 47.428 259.539,47.139 260.035,47.006 260.641 C 46.872 261.247,46.600 261.844,46.401 261.967 C 45.999 262.215,45.309 263.750,45.096 264.869 C 45.020 265.266,44.838 265.680,44.691 265.790 C 44.228 266.138,43.502 267.616,43.502 268.213 C 43.502 268.529,43.171 269.143,42.765 269.578 C 40.584 271.919,42.068 273.385,46.737 273.500 C 50.731 273.598,51.344 273.206,52.358 269.903 C 52.520 269.373,53.176 267.530,53.816 265.806 C 59.453 250.617,59.324 251.318,56.625 250.533 C 54.220 249.834,53.969 249.838,52.442 250.597 M98.374 276.959 C 97.694 278.060,96.844 280.561,97.072 280.790 C 97.172 280.889,97.444 280.394,97.677 279.689 C 98.238 277.990,98.533 277.923,102.437 278.615 L 105.775 279.206 105.904 281.447 C 106.019 283.451,106.041 283.369,106.104 280.667 C 106.185 277.233,106.249 277.319,103.075 276.637 C 99.820 275.938,98.969 275.996,98.374 276.959 M96.454 282.120 C 96.147 283.263,96.176 285.441,96.503 285.955 C 96.652 286.189,96.784 285.235,96.795 283.835 C 96.818 281.053,96.784 280.886,96.454 282.120 M96.959 287.221 C 96.959 287.471,97.752 287.668,102.198 288.524 C 102.748 288.629,103.494 288.543,103.857 288.332 C 104.407 288.012,104.302 287.945,103.226 287.924 C 102.516 287.910,100.816 287.682,99.447 287.418 C 98.078 287.153,96.959 287.064,96.959 287.221 M89.728 293.187 C 89.136 293.868,88.951 294.647,88.883 296.752 C 88.835 298.233,88.657 299.810,88.487 300.256 C 88.317 300.702,88.142 303.378,88.097 306.202 C 87.989 313.032,87.911 314.424,87.619 314.716 C 86.239 316.096,87.875 318.894,90.063 318.894 C 94.469 318.894,94.528 318.428,92.964 296.037 L 92.719 292.535 91.602 292.425 C 90.799 292.346,90.273 292.560,89.728 293.187 M297.788 292.553 C 297.302 293.060,297.492 295.193,298.065 295.668 C 298.369 295.921,298.618 296.356,298.618 296.635 C 298.618 296.914,298.991 297.163,299.447 297.187 C 302.321 297.341,304.052 297.495,305.216 297.698 C 308.866 298.336,310.255 298.511,310.507 298.365 C 310.659 298.277,310.783 298.354,310.783 298.536 C 310.783 298.718,311.488 298.898,312.350 298.936 C 313.817 299.000,315.152 299.186,315.576 299.385 C 315.760 299.471,316.112 299.501,320.055 299.767 C 321.201 299.845,322.083 299.999,322.015 300.111 C 321.947 300.222,322.969 300.346,324.287 300.387 C 325.605 300.427,326.963 300.597,327.305 300.765 C 327.646 300.933,328.673 301.115,329.585 301.168 C 330.498 301.222,331.483 301.458,331.776 301.693 C 332.204 302.036,332.247 302.012,331.998 301.567 C 331.747 301.117,331.782 301.100,332.186 301.475 C 332.799 302.044,333.406 302.082,333.065 301.530 C 332.883 301.235,333.021 301.235,333.572 301.530 C 335.833 302.740,338.470 301.664,337.771 299.816 C 337.390 298.810,336.968 297.244,336.709 295.881 C 336.498 294.764,335.954 294.316,334.279 293.878 C 331.863 293.247,298.291 292.028,297.788 292.553 M250.211 319.497 C 249.864 319.844,249.883 321.106,250.235 321.106 C 250.390 321.106,250.680 321.467,250.880 321.907 C 251.080 322.348,251.553 322.751,251.929 322.802 C 252.306 322.854,253.038 323.281,253.556 323.752 C 254.073 324.223,254.360 324.359,254.194 324.055 C 254.027 323.751,254.301 323.876,254.803 324.332 C 255.305 324.788,255.954 325.165,256.245 325.169 C 256.536 325.174,257.189 325.502,257.696 325.899 C 258.203 326.295,258.831 326.623,259.091 326.628 C 259.352 326.632,259.999 326.920,260.529 327.268 C 261.059 327.615,261.741 327.936,262.043 327.980 C 262.346 328.024,263.302 328.570,264.168 329.192 C 265.034 329.814,266.006 330.323,266.328 330.323 C 266.649 330.323,266.912 330.485,266.912 330.684 C 266.912 330.883,267.367 331.160,267.923 331.299 C 268.478 331.439,269.155 331.775,269.427 332.047 C 269.699 332.319,270.074 332.447,270.260 332.332 C 270.447 332.217,270.599 332.267,270.599 332.444 C 270.599 332.792,273.379 334.378,273.987 334.378 C 274.190 334.378,274.838 334.721,275.427 335.140 C 276.016 335.560,276.498 335.783,276.498 335.636 C 276.498 335.490,276.788 335.610,277.143 335.903 C 277.498 336.197,278.286 336.658,278.894 336.927 C 279.502 337.197,280.415 337.617,280.922 337.860 C 283.792 339.241,285.848 335.288,283.477 332.946 C 282.703 332.182,262.927 323.957,251.041 319.456 C 250.726 319.337,250.353 319.356,250.211 319.497 M139.980 320.649 C 139.873 321.205,139.936 321.714,140.123 321.782 C 140.562 321.941,140.561 323.212,140.122 323.484 C 139.932 323.601,140.048 324.218,140.386 324.888 C 140.718 325.545,141.047 326.495,141.118 326.998 C 141.188 327.501,141.360 327.999,141.499 328.104 C 141.727 328.277,141.880 328.711,142.084 329.770 C 142.123 329.972,142.332 330.470,142.549 330.876 C 142.765 331.281,142.860 331.843,142.759 332.125 C 142.648 332.438,142.739 332.537,142.994 332.380 C 143.265 332.212,143.414 332.484,143.422 333.158 C 143.428 333.728,143.672 334.508,143.963 334.893 C 144.254 335.278,144.405 335.734,144.298 335.907 C 144.191 336.080,144.261 336.221,144.453 336.221 C 144.646 336.221,144.909 336.790,145.040 337.485 C 145.170 338.180,145.436 338.802,145.631 338.867 C 145.825 338.933,146.021 339.430,146.066 339.973 C 146.111 340.516,146.278 340.880,146.438 340.781 C 146.597 340.682,146.728 341.109,146.728 341.729 C 146.728 342.350,146.894 342.857,147.097 342.857 C 147.300 342.857,147.465 343.191,147.465 343.599 C 147.465 344.008,147.657 344.713,147.891 345.166 C 148.126 345.620,148.433 346.240,148.574 346.544 C 148.908 347.265,150.678 347.462,151.734 346.897 C 153.197 346.114,152.636 344.378,147.568 334.009 C 144.942 328.636,142.487 323.576,142.112 322.765 C 141.737 321.954,141.148 320.919,140.803 320.465 L 140.177 319.639 139.980 320.649 M198.341 332.513 C 198.341 332.906,198.518 333.338,198.735 333.472 C 198.951 333.606,199.043 333.939,198.938 334.212 C 198.815 334.532,198.938 334.636,199.281 334.504 C 199.766 334.318,199.997 334.774,199.846 335.615 C 199.750 336.153,200.616 336.963,201.020 336.713 C 201.240 336.578,201.294 336.654,201.148 336.891 C 201.002 337.126,201.619 338.056,202.565 339.029 C 203.486 339.977,204.240 340.904,204.240 341.089 C 204.240 341.274,204.406 341.323,204.608 341.198 C 204.811 341.073,204.977 341.178,204.977 341.431 C 204.977 341.685,205.633 342.504,206.435 343.252 C 207.237 344.000,207.790 344.714,207.664 344.840 C 207.538 344.966,207.739 345.069,208.111 345.069 C 208.482 345.069,208.685 345.171,208.561 345.294 C 208.437 345.418,208.788 345.900,209.340 346.365 C 209.892 346.829,210.575 347.640,210.856 348.167 C 211.138 348.694,211.617 349.124,211.921 349.124 C 212.225 349.124,212.374 349.223,212.254 349.344 C 211.681 349.917,215.961 353.548,217.195 353.537 C 219.227 353.517,220.402 351.400,219.056 350.186 C 218.916 350.060,214.809 346.327,209.929 341.891 C 197.481 330.575,198.341 331.271,198.341 332.513 " stroke="none" fill="#fce5a3" fill-rule="evenodd"></path><path id="path4" d="M115.673 182.678 C 108.961 185.143,103.269 195.304,103.233 204.885 C 103.225 207.056,103.758 207.489,104.070 205.566 C 105.165 198.822,111.928 193.962,115.950 197.030 C 120.133 200.220,120.781 212.714,117.023 217.696 C 116.424 218.490,111.764 218.754,109.954 218.096 C 109.130 217.796,109.124 217.819,109.124 221.339 C 109.124 224.812,109.564 225.975,110.046 223.779 C 110.314 222.561,110.728 222.457,112.905 223.061 C 114.471 223.496,114.518 224.156,113.298 228.571 C 111.789 234.029,109.195 233.844,109.082 228.271 C 109.033 225.862,109.006 225.949,108.212 231.152 C 107.887 233.281,107.463 235.770,107.270 236.682 C 107.076 237.594,106.569 240.000,106.141 242.028 C 105.441 245.351,102.731 256.241,101.187 261.935 C 97.812 274.388,96.404 280.724,97.298 279.447 C 97.511 279.143,97.691 278.645,97.698 278.341 C 97.706 278.037,98.026 277.380,98.409 276.881 L 99.106 275.974 101.995 276.459 C 106.462 277.207,106.311 277.020,106.083 281.483 C 105.879 285.479,104.965 288.044,103.590 288.481 C 103.063 288.648,97.321 287.748,97.161 287.473 C 97.129 287.418,96.916 286.959,96.687 286.452 C 96.303 285.600,96.269 285.658,96.246 287.217 C 96.214 289.389,97.189 290.360,99.927 290.880 C 105.369 291.913,108.213 289.497,109.123 283.066 C 109.490 280.475,109.816 277.968,110.588 271.797 C 110.784 270.226,111.119 267.198,111.332 265.069 C 112.077 257.603,113.048 249.307,113.554 246.083 C 113.745 244.866,114.248 241.548,114.671 238.710 C 116.585 225.865,118.224 220.355,120.252 219.950 C 132.545 217.492,134.962 190.260,123.428 184.159 C 122.354 183.591,121.060 182.901,120.553 182.625 C 119.400 181.998,117.466 182.019,115.673 182.678 M122.510 184.237 C 134.284 191.190,132.687 216.292,120.271 219.418 C 119.359 219.647,118.436 220.167,118.141 220.617 C 116.534 223.071,112.915 244.552,111.150 262.120 C 108.916 284.361,107.580 290.138,104.670 290.138 C 104.110 290.138,104.283 289.303,105.205 287.555 C 106.380 285.325,107.332 278.051,107.473 270.230 C 107.504 268.507,107.716 265.438,107.944 263.410 C 108.173 261.382,108.531 258.147,108.741 256.221 C 108.951 254.295,109.377 250.977,109.687 248.848 C 109.998 246.719,110.343 244.230,110.453 243.318 C 110.563 242.406,110.795 241.327,110.970 240.922 C 111.144 240.516,111.370 239.687,111.472 239.078 C 111.574 238.470,111.834 237.226,112.049 236.313 C 113.267 231.150,113.648 229.418,114.525 225.069 C 115.056 222.433,115.541 220.083,115.602 219.845 C 115.664 219.608,116.789 218.901,118.103 218.274 C 123.246 215.820,124.977 212.837,124.977 206.427 C 124.977 193.808,120.777 186.651,113.461 186.802 L 110.977 186.854 112.170 185.613 C 115.469 182.183,118.376 181.796,122.510 184.237 M81.567 294.079 C 81.922 294.172,82.502 294.172,82.857 294.079 C 83.212 293.986,82.922 293.910,82.212 293.910 C 81.502 293.910,81.212 293.986,81.567 294.079 M67.926 294.448 C 68.281 294.540,68.862 294.540,69.217 294.448 C 69.571 294.355,69.281 294.279,68.571 294.279 C 67.862 294.279,67.571 294.355,67.926 294.448 M59.447 294.816 C 59.802 294.909,60.382 294.909,60.737 294.816 C 61.092 294.724,60.802 294.648,60.092 294.648 C 59.382 294.648,59.092 294.724,59.447 294.816 M297.597 318.525 C 297.597 319.235,297.673 319.525,297.766 319.171 C 297.858 318.816,297.858 318.235,297.766 317.880 C 297.673 317.525,297.597 317.816,297.597 318.525 M93.014 324.055 C 93.014 325.171,93.083 325.627,93.167 325.069 C 93.252 324.512,93.252 323.599,93.167 323.041 C 93.083 322.484,93.014 322.940,93.014 324.055 " stroke="none" fill="#88847b" fill-rule="evenodd"></path></g></svg>