<svg xmlns="http://www.w3.org/2000/svg" width="750" height="750" viewBox="0 0 750 750" version="1.1"><path d="M 264.500 197.005 C 222.198 198.458, 175.433 202.482, 165 205.567 C 154.307 208.728, 145.993 213.885, 136.992 222.941 C 124.483 235.525, 120.063 245.026, 116.031 268 C 110.547 299.244, 108.463 340.711, 109.371 400.500 C 110.034 444.125, 110.828 457.876, 114.019 481 C 118.398 512.737, 123.402 525.404, 136.974 539.110 C 143.852 546.056, 147.143 548.523, 154 551.879 C 164.078 556.810, 171.087 558.361, 192.500 560.399 C 236.557 564.593, 281.685 565.979, 374.544 565.991 C 468.532 566.002, 513.683 564.621, 557.500 560.393 C 578.551 558.362, 585.771 556.757, 596 551.836 C 602.950 548.493, 606.076 546.159, 613.144 539.034 C 620.103 532.019, 622.597 528.648, 625.940 521.742 C 636.071 500.811, 640.978 455.019, 640.970 381.500 C 640.960 301.792, 635.949 258.522, 624.234 237 C 618.938 227.270, 606.494 215.372, 596.252 210.246 C 586.243 205.237, 578.349 203.482, 557 201.524 C 509.678 197.182, 496.468 196.783, 390.500 196.495 C 333.850 196.341, 277.150 196.571, 264.500 197.005 M 319 380.969 C 319 435.436, 319.289 480, 319.643 480 C 319.997 480, 354.637 457.844, 396.622 430.765 C 454.883 393.187, 472.667 381.262, 471.729 380.400 C 470.802 379.548, 375.740 318.247, 324.250 285.298 L 319 281.939 319 380.969" stroke="none" fill="#fbfbfb" fill-rule="evenodd"/><path d="M 93 1.426 C 70.465 5.591, 49.558 16.995, 32.500 34.428 C 17.723 49.530, 8.893 65.026, 2.730 86.670 L 0.500 94.500 0.205 370 C -0.011 571.275, 0.215 647.649, 1.043 653.476 C 5.367 683.924, 24.403 713.609, 50.785 731.045 C 62.352 738.690, 71.404 742.764, 85.715 746.764 L 95.500 749.500 375 749.500 L 654.500 749.500 664.285 746.764 C 678.023 742.924, 687.128 738.925, 697.699 732.088 C 723.812 715.201, 743.069 686.832, 748.027 657.944 C 748.729 653.850, 749.686 650.072, 750.152 649.550 C 751.239 648.332, 751.272 98.714, 750.186 99.385 C 749.738 99.662, 748.806 96.524, 748.115 92.411 C 740.643 47.945, 702.066 9.640, 656.500 1.442 C 649.656 0.211, 608.826 0.019, 374 0.113 C 164.999 0.198, 97.949 0.511, 93 1.426 M 0.493 375 C 0.493 526.525, 0.609 588.513, 0.750 512.750 C 0.891 436.988, 0.891 313.013, 0.750 237.250 C 0.609 161.488, 0.493 223.475, 0.493 375 M 264.500 197.005 C 222.198 198.458, 175.433 202.482, 165 205.567 C 154.307 208.728, 145.993 213.885, 136.992 222.941 C 124.483 235.525, 120.063 245.026, 116.031 268 C 110.547 299.244, 108.463 340.711, 109.371 400.500 C 110.034 444.125, 110.828 457.876, 114.019 481 C 118.398 512.737, 123.402 525.404, 136.974 539.110 C 143.852 546.056, 147.143 548.523, 154 551.879 C 164.078 556.810, 171.087 558.361, 192.500 560.399 C 236.557 564.593, 281.685 565.979, 374.544 565.991 C 468.532 566.002, 513.683 564.621, 557.500 560.393 C 578.551 558.362, 585.771 556.757, 596 551.836 C 602.950 548.493, 606.076 546.159, 613.144 539.034 C 620.103 532.019, 622.597 528.648, 625.940 521.742 C 636.071 500.811, 640.978 455.019, 640.970 381.500 C 640.960 301.792, 635.949 258.522, 624.234 237 C 618.938 227.270, 606.494 215.372, 596.252 210.246 C 586.243 205.237, 578.349 203.482, 557 201.524 C 509.678 197.182, 496.468 196.783, 390.500 196.495 C 333.850 196.341, 277.150 196.571, 264.500 197.005 M 319 380.969 C 319 435.436, 319.289 480, 319.643 480 C 319.997 480, 354.637 457.844, 396.622 430.765 C 454.883 393.187, 472.667 381.262, 471.729 380.400 C 470.802 379.548, 375.740 318.247, 324.250 285.298 L 319 281.939 319 380.969" stroke="none" fill="#1c1444" fill-rule="evenodd"/></svg>